<svg width="71" height="75" viewBox="0 0 71 75" fill="none" xmlns="http://www.w3.org/2000/svg">
<g clip-path="url(#clip0_508_331)">
<path d="M40.1083 75C36.3436 75 32.7272 73.3689 29.6497 70.287C28.1969 68.8284 26.7441 67.3698 25.2913 65.9034C22.7762 63.3704 20.2533 60.8375 17.7148 58.3203C16.7697 57.3792 16.098 56.2814 15.6606 54.9561C14.7389 52.1408 13.8095 49.3334 12.88 46.5182C11.7005 42.9501 10.5211 39.3899 9.36512 35.814C9.01363 34.7396 8.52936 33.9476 7.80296 33.2418C6.53761 32.0185 5.9518 31.4225 5.37381 30.8344C4.79581 30.2462 4.22562 29.6659 2.95246 28.4426C0.0390436 25.643 -0.765467 22.9846 0.749825 21.1731C3.04619 18.4128 6.62353 17.5345 10.7086 18.7578C16.2308 20.4203 20.1206 23.2905 22.5966 27.5329C23.0418 28.2936 23.4948 29.0543 23.9557 29.8149C24.8773 31.3363 25.8224 32.9125 26.6738 34.5358C34.9064 26.2312 43.2951 17.809 51.4027 9.66906L57.2061 3.84252C59.2604 1.7801 61.1974 0.78418 63.1423 0.78418C64.6654 0.78418 66.087 1.41937 67.368 2.66624C68.6567 3.92094 69.3129 5.34817 69.3285 6.92439C69.3441 8.87703 68.3365 10.8924 66.3291 12.9078L61.0725 18.1854C59.2838 19.9812 57.4951 21.777 55.7143 23.5728C57.378 23.8943 58.698 24.8275 59.6587 26.3802C60.7991 28.223 60.9553 30.1051 60.1118 32.0812C62.1972 32.2773 63.8765 33.3987 65.0013 35.367C66.0323 37.1628 66.1573 38.9743 65.384 40.7779C65.9542 40.8328 66.4854 40.9661 67.0009 41.17C68.9848 41.9777 70.3829 43.6167 70.8516 45.6713C71.3202 47.7415 70.75 49.8588 69.2816 51.4821C67.9069 52.9956 66.4385 54.4464 65.0247 55.8501C64.4467 56.4147 63.8766 56.9871 63.3064 57.5596L62.5565 58.3124C58.6043 62.2883 54.6598 66.2563 50.6998 70.2243C47.5755 73.3532 43.92 75.0078 40.124 75.0078L40.1083 75ZM7.20934 21.3457C5.53002 21.3457 4.16314 21.9652 3.13992 23.1807C3.04619 23.4865 3.62419 24.7491 5.11605 26.1841C6.41264 27.4388 6.99845 28.0348 7.59207 28.6308C8.15444 29.2033 8.73244 29.7836 9.96655 30.9834C11.0601 32.0342 11.8333 33.2967 12.3332 34.8416C13.497 38.4097 14.6686 41.9699 15.8481 45.5301C16.7775 48.3454 17.707 51.1606 18.6287 53.9758C18.9099 54.8385 19.3082 55.4893 19.9097 56.0853C22.456 58.6026 24.9789 61.1433 27.5017 63.6841C28.9546 65.1427 30.3995 66.6013 31.8524 68.0599C34.3362 70.5458 37.1871 71.8554 40.1005 71.8554C43.014 71.8554 45.943 70.5144 48.4659 67.9893C52.4181 64.0292 56.3704 60.0533 60.3148 56.0853L61.0647 55.3325C61.6427 54.7522 62.2207 54.1797 62.8065 53.6073C64.1968 52.2349 65.6262 50.8156 66.9462 49.3648C67.7195 48.51 68.0241 47.42 67.7819 46.3613C67.5476 45.3184 66.8212 44.4871 65.8058 44.0715C64.9466 43.7186 63.7594 43.9382 62.4316 44.2519C61.752 44.4166 61.049 44.095 60.7054 43.4834C60.3695 42.8717 60.4789 42.1032 60.9709 41.6092C63.072 39.5154 63.0096 38.2214 62.2675 36.9197C61.2599 35.1553 59.7993 34.7945 57.4014 35.5238C56.7375 35.7277 56.0111 35.4611 55.6362 34.873C55.2613 34.2848 55.3159 33.5163 55.7768 32.9909C57.9794 30.4736 57.6592 29.117 56.9796 28.027C56.3548 27.0154 55.5659 26.5841 54.3552 26.5841C53.7772 26.5841 53.0977 26.686 52.3322 26.8899C51.7386 27.0467 51.1059 26.8428 50.7232 26.3566C50.3327 25.8783 50.2624 25.2117 50.5435 24.6628C50.5826 24.5844 50.6138 24.5216 50.6373 24.4667C50.7154 24.2864 50.8404 24.0119 51.0903 23.761C53.6757 21.1575 56.261 18.5618 58.8464 15.9661L64.1031 10.6885C65.4699 9.30833 66.1964 8.02226 66.1807 6.94792C66.1807 6.23431 65.8449 5.57559 65.1731 4.91686C64.4858 4.2503 63.8141 3.92094 63.1267 3.92094C62.0879 3.92094 60.7991 4.66592 59.401 6.06178L53.5976 11.8883C45.4119 20.0988 36.945 28.5994 28.6499 36.9746C28.1344 37.4921 27.4315 38.2058 26.4239 38.2058C25.0257 38.2058 24.3384 36.857 24.0728 36.3551C23.2214 34.6926 22.2217 33.0458 21.2609 31.446C20.8001 30.6775 20.3315 29.9012 19.8784 29.1248C17.7929 25.5489 14.5905 23.212 9.79471 21.7691C8.87304 21.4947 7.99823 21.3535 7.19372 21.3535L7.20934 21.3457Z" fill="white"/>
<path d="M19.9487 18.554C18.9411 18.6402 18.3788 18.154 17.8164 17.7149C15.2545 15.6995 12.716 13.6606 10.1618 11.6296C9.09175 10.7826 8.36535 9.79456 9.41199 8.51632C10.4586 7.23025 11.56 7.78703 12.6144 8.63395C15.2701 10.767 17.9414 12.8686 20.5892 15.0094C21.3 15.5819 21.7608 16.3033 21.3469 17.2836C21.0422 18.0129 20.5111 18.4363 19.9409 18.554H19.9487Z" fill="white"/>
<path d="M39.2492 16.3191C38.4134 16.3583 37.8588 16.0916 37.4214 15.5505C36.9059 14.9154 36.7653 14.1939 37.2652 13.5509C39.7022 10.4063 42.1548 7.26165 44.6777 4.17978C45.326 3.38775 46.2711 3.59164 47.0209 4.20331C47.6848 4.7444 48.1066 5.52859 47.5677 6.30494C45.2244 9.70833 42.6703 12.9392 39.8975 16.0054C39.7256 16.2014 39.3976 16.2563 39.257 16.3191H39.2492Z" fill="white"/>
<path d="M26.502 7.85756C26.2833 5.99119 26.0724 4.12481 25.8537 2.2506C25.7209 1.08999 26.0802 0.219542 27.3377 0.0313357C28.6734 -0.164712 29.3685 0.525376 29.5169 1.81929C29.9622 5.63046 30.4074 9.43378 30.8213 13.2449C30.9541 14.4291 30.4542 15.229 29.2123 15.3701C27.9782 15.5113 27.3143 14.8604 27.1659 13.6684C26.9316 11.7315 26.7129 9.78667 26.4942 7.84972L26.502 7.85756Z" fill="white"/>
</g>
<defs>
<clipPath id="clip0_508_331">
<rect width="71" height="75" fill="white"/>
</clipPath>
</defs>
</svg>
