<svg width="78" height="85" viewBox="0 0 78 85" fill="none" xmlns="http://www.w3.org/2000/svg">
<g clip-path="url(#clip0_508_306)">
<path d="M47.5987 66.449C46.4567 66.449 45.5278 65.5172 45.5278 64.3715V61.2253C45.5278 57.7815 47.052 54.5687 49.7093 52.4098C53.7263 49.1466 56.0295 44.3048 56.0295 39.1269C56.0295 34.5182 54.228 30.1982 50.9568 26.9617C47.7506 23.7895 43.4998 22.0421 38.9886 22.0421C38.9111 22.0421 38.8344 22.0421 38.7577 22.0436C29.5087 22.1731 21.9786 29.8303 21.9712 39.1121C21.9675 44.2648 24.2486 49.0926 28.2294 52.358C30.9266 54.5702 32.4729 57.8015 32.4729 61.2253V64.3708C32.4729 65.5165 31.5441 66.4483 30.4021 66.4483C29.2601 66.4483 28.3312 65.5165 28.3312 64.3708V61.2253C28.3312 59.0538 27.3382 56.9948 25.6075 55.5745C20.6595 51.5157 17.8244 45.5141 17.8296 39.1084C17.8384 27.5678 27.201 18.0484 38.6994 17.8878C38.8012 17.8864 38.903 17.8856 39.0041 17.8856C44.6013 17.8856 49.879 20.0579 53.8657 24.0019C57.9321 28.0252 60.1719 33.397 60.1719 39.1254C60.1719 45.563 57.3087 51.5816 52.3157 55.6374C50.6344 57.0037 49.6695 59.0397 49.6695 61.2238V64.37C49.6695 65.5157 48.7407 66.4475 47.5987 66.4475V66.449Z" fill="white"/>
<path d="M31.3973 75.7242C30.2553 75.7242 29.3264 74.7924 29.3264 73.6467C29.3264 72.501 30.2553 71.5692 31.3973 71.5692H46.602C47.744 71.5692 48.6728 72.501 48.6728 73.6467C48.6728 74.7924 47.744 75.7242 46.602 75.7242H31.3973Z" fill="white"/>
<path d="M35.4445 85C34.3025 85 33.3737 84.0682 33.3737 82.9225C33.3737 81.7768 34.3025 80.845 35.4445 80.845H42.5563C43.6983 80.845 44.6271 81.7768 44.6271 82.9225C44.6271 84.0682 43.6983 85 42.5563 85H35.4445Z" fill="white"/>
<path d="M38.9996 11.7301C38.9362 11.7301 38.872 11.7271 38.8086 11.7212C37.7543 11.6257 36.9288 10.6828 36.9288 9.57413V2.15596C36.9288 1.04726 37.7543 0.104356 38.8086 0.00888138C38.872 0.00296046 38.9362 0 38.9996 0C40.1416 0 41.0705 0.931805 41.0705 2.0775V9.65184C41.0705 10.7975 40.1416 11.7293 38.9996 11.7293V11.7301Z" fill="white"/>
<path d="M24.3128 15.6793C23.5743 15.6793 22.886 15.2811 22.5172 14.6402L18.7422 8.08056C18.1712 7.08807 18.5112 5.81507 19.5006 5.24222C19.8156 5.06015 20.1726 4.9632 20.5334 4.9632C21.2726 4.9632 21.9602 5.36138 22.3298 6.00232L26.1048 12.562C26.6758 13.5545 26.3357 14.8275 25.3464 15.4003C25.0314 15.5824 24.6743 15.6793 24.3135 15.6793H24.3128Z" fill="white"/>
<path d="M13.5544 26.4673C13.1937 26.4673 12.8366 26.3711 12.5216 26.1883L5.98303 22.4011C4.99446 21.8282 4.65437 20.5552 5.22538 19.5627C5.59424 18.9218 6.28255 18.5236 7.02102 18.5236C7.38178 18.5236 7.73884 18.6198 8.05385 18.8026L14.5924 22.5898C15.0719 22.8674 15.4142 23.3151 15.5574 23.851C15.7005 24.3868 15.6267 24.9471 15.3501 25.4274C14.9812 26.0684 14.2929 26.4665 13.5544 26.4665V26.4673Z" fill="white"/>
<path d="M2.07082 41.2037C0.928809 41.2037 0 40.2719 0 39.1262C0 37.9805 0.928809 37.0487 2.07082 37.0487H9.6208C10.7628 37.0487 11.6916 37.9805 11.6916 39.1262C11.6916 40.2719 10.7628 41.2037 9.6208 41.2037H2.07082Z" fill="white"/>
<path d="M7.02102 59.728C6.28255 59.728 5.59424 59.3298 5.22538 58.6889C4.94873 58.2086 4.87495 57.6483 5.01807 57.1117C5.16119 56.5759 5.50424 56.1281 5.98303 55.8506L12.5216 52.0634C12.8366 51.8813 13.1937 51.7844 13.5544 51.7844C14.2936 51.7844 14.9819 52.1825 15.3508 52.8235C15.6274 53.3038 15.7012 53.8641 15.5574 54.3999C15.4142 54.9358 15.0712 55.3843 14.5924 55.6611L8.05385 59.4483C7.73884 59.6311 7.38178 59.7273 7.02029 59.7273L7.02102 59.728Z" fill="white"/>
<path d="M70.979 59.728C70.6182 59.728 70.2604 59.6318 69.9461 59.449L63.4076 55.6618C62.9295 55.385 62.5872 54.9365 62.4434 54.3999C62.3003 53.8633 62.3733 53.3031 62.6492 52.8235C63.0181 52.1825 63.7064 51.7844 64.4456 51.7844C64.8063 51.7844 65.1634 51.8806 65.4784 52.0634L72.017 55.8506C72.495 56.1274 72.8373 56.5759 72.9812 57.1125C73.1243 57.649 73.0513 58.2093 72.7754 58.6889C72.4065 59.3298 71.7182 59.728 70.9797 59.728H70.979Z" fill="white"/>
<path d="M68.3792 41.2037C67.2372 41.2037 66.3084 40.2719 66.3084 39.1262C66.3084 37.9805 67.2372 37.0487 68.3792 37.0487H75.9292C77.0712 37.0487 78 37.9805 78 39.1262C78 40.2719 77.0712 41.2037 75.9292 41.2037H68.3792Z" fill="white"/>
<path d="M64.4456 26.4673C63.7071 26.4673 63.0188 26.0691 62.6499 25.4282C62.3733 24.9478 62.2995 24.3876 62.4426 23.851C62.5858 23.3151 62.9288 22.8674 63.4076 22.5898L69.9461 18.8026C70.2612 18.6206 70.6182 18.5236 70.9797 18.5236C71.7182 18.5236 72.4065 18.9218 72.7754 19.5627C73.0513 20.0423 73.1243 20.6026 72.9812 21.1392C72.8381 21.6758 72.4958 22.1243 72.017 22.4011L65.4784 26.1883C65.1634 26.3711 64.8063 26.4673 64.4448 26.4673H64.4456Z" fill="white"/>
<path d="M53.6872 15.6793C53.3257 15.6793 52.9686 15.5831 52.6544 15.4003C52.1748 15.1228 51.8325 14.6742 51.6894 14.1384C51.5463 13.6026 51.6201 13.0423 51.8967 12.562L55.6717 6.00232C56.0406 5.36138 56.7289 4.9632 57.4674 4.9632C57.8281 4.9632 58.1859 5.05941 58.5009 5.24222C59.4902 5.81507 59.8296 7.08807 59.2593 8.08056L55.4843 14.6402C55.1155 15.2811 54.4271 15.6793 53.6887 15.6793H53.6872Z" fill="white"/>
<path d="M37.4054 45.426C36.875 45.426 36.3453 45.2232 35.941 44.8176L31.156 40.0173C30.3475 39.2061 30.3475 37.8902 31.156 37.079C31.9646 36.2678 33.2763 36.2678 34.0848 37.079L37.4054 40.4103L44.3585 33.4347C45.1671 32.6235 46.4788 32.6235 47.2873 33.4347C48.0959 34.2458 48.0959 35.5618 47.2873 36.3729L38.8698 44.8176C38.4655 45.2232 37.9351 45.426 37.4054 45.426Z" fill="white"/>
</g>
<defs>
<clipPath id="clip0_508_306">
<rect width="78" height="85" fill="white"/>
</clipPath>
</defs>
</svg>
