<svg width="98" height="99" viewBox="0 0 98 99" fill="none" xmlns="http://www.w3.org/2000/svg">
<g clip-path="url(#clip0_507_279)">
<path d="M49 0C62.5305 0 74.7805 5.41953 83.6479 14.1815C92.5153 22.9434 98 35.0477 98 48.4174C98 61.787 92.5153 73.8913 83.6479 82.6533C74.7805 91.4152 62.5305 96.8347 49 96.8347C45.1664 96.8347 41.426 96.395 37.8283 95.5655C34.4725 94.7909 31.2434 93.6725 28.1829 92.2496L4.1091 98.9099C2.29737 99.4113 0.646197 97.7475 1.19031 95.9671L7.74347 74.5269C5.36284 70.8633 3.46984 66.8687 2.15465 62.6311C0.754227 58.1185 0 53.3453 0 48.4174C0 35.0477 5.48475 22.9434 14.3521 14.1815C23.2195 5.41953 35.4695 0 49 0ZM79.9481 17.8373C72.0282 10.0115 61.0865 5.17079 49 5.17079C36.9135 5.17079 25.9718 10.0115 18.0519 17.8373C10.132 25.663 5.23301 36.4746 5.23301 48.4174C5.23301 52.8546 5.90101 57.1176 7.14187 61.1152C8.43426 65.2792 10.3401 69.1691 12.7535 72.6828L13.4572 73.7072L7.69589 92.5571L28.6854 86.7497L29.5804 87.1885C32.5438 88.6398 35.7024 89.7709 39.0127 90.5348C42.21 91.2722 45.553 91.663 48.999 91.663C61.0855 91.663 72.0272 86.8222 79.9471 78.9965C87.867 71.1708 92.766 60.3591 92.766 48.4164C92.766 36.4736 87.867 25.662 79.9471 17.8363L79.9481 17.8373Z" fill="#FA6F6F" stroke="#FA6F6F"/>
<path d="M42.2922 35.9957C41.9731 38.1502 39.9473 39.6407 37.7668 39.3263C35.5864 39.011 34.078 37.0093 34.3961 34.8548C34.9442 31.247 36.7282 28.1161 39.314 25.894C41.8779 23.6896 45.2249 22.3832 48.9326 22.392C53.012 22.4018 56.6959 24.0568 59.354 26.7284C62.0042 29.3931 63.6435 33.0568 63.6435 37.0964C63.6435 39.9884 62.7961 42.7001 61.3342 44.9956C59.8317 47.3538 57.6681 49.2566 55.0982 50.4474C54.3985 50.7716 53.8475 51.2466 53.4778 51.8204C53.1081 52.3943 52.9059 53.0896 52.9039 53.8535L52.9 55.5242C52.9 57.6954 51.119 59.4562 48.9207 59.4562C46.7224 59.4562 44.9414 57.6963 44.9414 55.5242L44.9454 53.8535C44.9513 51.5599 45.5936 49.4182 46.768 47.5957C47.9405 45.7761 49.6283 44.2964 51.7285 43.3239C52.899 42.7814 53.893 41.901 54.5938 40.8012C55.2657 39.7465 55.6552 38.4763 55.6552 37.0964C55.6552 35.1897 54.898 33.4779 53.675 32.2478C52.454 31.0198 50.776 30.2598 48.9336 30.2549C47.2438 30.251 45.7214 30.8445 44.5579 31.8453C43.3695 32.8668 42.5479 34.3162 42.2932 35.9957H42.2922Z" fill="#388EA9" stroke="#388EA9"/>
<path fill-rule="evenodd" clip-rule="evenodd" d="M48.9326 63.9396C51.8672 63.9396 54.2468 66.2909 54.2468 69.1907C54.2468 72.0904 51.8672 74.4418 48.9326 74.4418C45.9979 74.4418 43.6183 72.0904 43.6183 69.1907C43.6183 66.2909 45.9979 63.9396 48.9326 63.9396Z" fill="#388EA9" stroke="#388EA9"/>
</g>
<defs>
<clipPath id="clip0_507_279">
<rect width="98" height="99" fill="white"/>
</clipPath>
</defs>
</svg>
