<svg width="99" height="99" viewBox="0 0 99 99" fill="none" xmlns="http://www.w3.org/2000/svg">
<g clip-path="url(#clip0_507_283)">
<path d="M42.9406 68.7823L26.2134 54.3101C24.1611 52.5346 23.9315 49.425 25.7008 47.3651L25.7019 47.3636C27.4712 45.3036 30.569 45.0732 32.6213 46.849L45.9956 58.4213L67.3047 33.5187C69.0702 31.4554 72.1676 31.2196 74.2233 32.9917C76.2786 34.7638 76.5135 37.8724 74.7483 39.9353L50.5545 68.2089C48.6112 70.4801 45.2 70.7369 42.9406 68.7823Z" fill="#388EA9"/>
<path d="M84.5524 5.29644L79.6981 10.1861C70.5712 3.19768 59.2958 -0.441576 47.5657 0.0431298C47.5642 0.0431298 47.5627 0.0431298 47.5612 0.0431298C35.013 0.562916 23.2363 5.76417 14.4018 14.6869C7.88149 21.2717 3.43792 29.4439 1.3676 38.3409C1.3597 38.3383 1.35144 38.3364 1.34354 38.3338C1.18796 38.9894 1.06695 39.6491 0.938422 40.3077C0.903472 40.4899 0.853113 40.6668 0.820042 40.8493C0.81666 40.8675 0.818915 40.8852 0.815908 40.9033C-0.48702 48.0441 -0.238986 55.3622 1.61676 62.4084C2.30486 65.0224 5.04488 66.5158 7.58911 65.6271C9.82291 64.8466 11.1559 62.4767 10.5418 60.1837C8.95818 54.2717 8.78192 48.1279 9.95181 42.1201C11.4314 34.2423 15.1857 27.0022 20.9303 21.2001C28.1285 13.9287 37.7248 9.6901 47.9513 9.26537C47.9528 9.26537 47.9543 9.26537 47.9562 9.26537C57.1515 8.88477 65.9101 11.5682 73.147 16.7842L68.2923 21.675C67.5467 22.4264 67.9409 23.7085 68.9786 23.9073L89.1568 27.7702C90.0723 27.9452 90.8743 27.1376 90.6969 26.2191L86.7791 5.97767C86.5777 4.93659 85.2984 4.54505 84.5524 5.29644Z" fill="#FA6F6F"/>
<path d="M14.4472 93.7037L19.3015 88.814C28.4284 95.8024 39.7038 99.4417 51.4339 98.957C51.4354 98.957 51.4369 98.957 51.4384 98.957C63.9867 98.4372 75.7634 93.2359 84.5979 84.3132C91.1178 77.7283 95.5613 69.5562 97.632 60.6588C97.6399 60.6614 97.6482 60.6633 97.6561 60.6659C97.8117 60.0104 97.9327 59.3506 98.0612 58.692C98.0962 58.5098 98.1465 58.3329 98.1796 58.1504C98.183 58.1323 98.1807 58.1145 98.1837 58.0964C99.4867 50.9556 99.2386 43.6375 97.3829 36.5913C96.6948 33.9773 93.9548 32.4839 91.4105 33.3726C89.1767 34.1531 87.8437 36.523 88.4578 38.8161C90.0415 44.728 90.2177 50.8719 89.0478 56.8796C87.5683 64.7575 83.8139 71.9975 78.0693 77.7996C70.8711 85.071 61.2748 89.3096 51.0483 89.7343C51.0468 89.7343 51.0453 89.7343 51.0434 89.7343C41.8482 90.1149 33.0896 87.4315 25.8526 82.2156L30.7073 77.3247C31.4529 76.5733 31.0587 75.2912 30.0211 75.0924L9.8428 71.2295C8.92733 71.0545 8.12535 71.8621 8.30273 72.7806L12.2205 93.0221C12.422 94.0631 13.7012 94.4547 14.4472 93.7033V93.7037Z" fill="#FA6F6F"/>
</g>
<defs>
<clipPath id="clip0_507_283">
<rect width="99" height="99" fill="white"/>
</clipPath>
</defs>
</svg>
