<svg height="108.012345" viewBox="0 0 299.99883 34.952404" width="925.8201" xmlns="http://www.w3.org/2000/svg"><g transform="matrix(2.741017767 0 0 2.741017767 -907.2524966 -1018.831985)"><g fill="#2b4779"><path d="m354.59 384.36-3.4227-4.3914h-1.2875v4.3914h-3.925v-11.558h5.8404c4.2704 0 7.0026 1.2052 7.0026 3.5996 0 1.6182-1.5703 2.6244-3.7051 3.1526l3.7677 4.8052h-4.2704v.00037zm-2.983-9.544h-1.7272v3.2202h1.9467c2.01 0 3.0456-.54559 3.0456-1.602.00039-1.0398-.90957-1.6182-3.265-1.6182z"/><path d="m368.63 380v4.3589h-3.925v-4.3257l-5.6526-7.2322h4.3338l1.6955 2.3446c.72256 1.0066 1.4451 2.1468 1.6333 2.6916.21948-.54482.94203-1.7342 1.6329-2.6916l1.6955-2.3446h4.2704l-5.6839 7.1989z"/><path d="m383.47 384.36-1.0355-2.4103h-4.9292l-1.0359 2.4103h-4.0193l5.6205-11.558h3.8311l5.6197 11.558zm-2.4791-5.7125c-.37711-.8918-.87903-2.2299-1.0359-2.8068-.15764.5939-.59659 1.8323-1.005 2.7732l-.59659 1.4046h3.2341l-.5966-1.3709z"/><path d="m398.2 384.36-4.0502-5.1514c-.56568-.72642-1.2566-1.6681-1.6642-2.3443.0312.71059.0623 1.8988.0623 2.6248v4.8709h-3.58v-11.557h3.9567l3.8624 5.0695c.534.69242 1.3192 1.7666 1.7268 2.4107-.0312-.71058-.12519-1.9652-.12519-2.6924v-4.7878h3.5796v11.557h-3.7681z"/><path d="m414.64 384.36-1.0371-2.4103h-4.9296l-1.0359 2.4103h-4.0193l5.6201-11.558h3.8315l5.6205 11.558zm-2.481-5.7125c-.37674-.8918-.87866-2.2299-1.0363-2.8068-.15726.5939-.5966 1.8323-1.005 2.7732l-.5966 1.4046h3.2349l-.59697-1.3709z"/><path d="m420.23 372.8h3.9242v11.558h-3.9242z"/><path d="m436.17 384.36-3.4231-4.3914h-1.2871v4.3914h-3.9258v-11.558h5.8407c4.2704 0 7.0019 1.2052 7.0019 3.5996 0 1.6182-1.5692 2.6244-3.7044 3.1526l3.7674 4.8052h-4.2697v.00037zm-2.9834-9.544h-1.7268v3.2202h1.9463c2.0096 0 3.0456-.54559 3.0456-1.602.00001-1.0398-.90995-1.6182-3.265-1.6182z"/></g><g fill="#f4ca35"><path d="m339.53 372.39c.81336.27164 1.6739.4799 2.5514.57959l.61205.006.0189-.017c.36592.01.6364-.15069.99227-.22913.0383-.009.13022-.0321.16925.0201.0178.068-.01.1418-.087.19242-.43585.33345-.95555.58151-1.4455.76004v-.01c-.16074.0309-.33269.10012-.49962.15494-.60353.18276-1.2906.29752-1.9397.25077-1.2434-.0638-2.3002-.50811-3.398-.45556-1.078-.063-2.1032.34891-2.677 1.1619-.29443.42542-.52858.87402-.60161 1.3674.0325.44667.65957.61823.8945.98764.13485.22332.2017.46946.30332.7013.26043.46715.51854.93391.83848 1.3736l-.008.009c.18741.29404.48609.54868.83925.7214.45789.32728.86205.73763 1.1024 1.1785l-.0125.007c.27047.43122.42232.87828.63176 1.328.0939.27589.19744.51855.27781.78709.0275.0251.0275.0656.0436.10087.0741.21253.13717.43895.22758.63602-.039.0297.0305.041.022.0699.005.11938.12138.2983-.034.37828-.22605-.19977-.34466-.49265-.46677-.70555-.26699-.46562-.57264-.91577-.90184-1.3586l.01-.009c-.20209-.25386-.42542-.5398-.65649-.80255-.9741-1.0784-2.4057-1.726-3.4521-2.7527l-.01.009c-.0892-.08-.14645-.18586-.2187-.27705l.007-.01c-.12751-.17851-.20325-.38214-.3265-.56491l.007-.009c-.3238-.48222-.63524-.99419-.84466-1.5015-.0436-.2245-.1205-.41769-.13756-.67619l-.0244-.0846c.0135-.23531-.57032-.37171-.24922-.82303.2017-.21753.98221-.4857 1.2477-.89411.006-.061.0201-.1337-.0325-.18895 0-.0436-.0453-.0896-.0769-.13485-.14762-.18354-.54792-.0386-.54134-.3095.041-.002.002-.0379.029-.0534-.0224-.13369-.0317-.22218.006-.335.0808-.22218.15959-.47798.14374-.70208.0163-.0842.1005-.13447.18547-.16731.16615-.0417.31144-.0641.4745-.0858l.0205.0166c.37674-.0309.8292-.004 1.0792.29212.10813.2245.0236.49072-.0371.71676-.0189.13021-.16152.23647-.12828.37365.0495.0506.1534.0475.21948.0194.56876-.34466 1.0653-.82302 1.4795-1.306.38176-.35741.94396-.48105 1.461-.40686 1.0475.0808 1.9328.43198 2.9092.67038z"/><path d="m336.83 374.28c.14761.19629-.0499.3694-.10863.54212-.61475.9231-.8292 1.9687-1.2372 2.9575-.0305.034-.0911.0444-.13485.0309-.10863-.0776-.10863-.20556-.0962-.31763.0819-1.0719.36515-2.0776.82147-3.0359.10663-.1534.28864-.32727.52319-.29096.0885.0185.16769.0495.23221.114z"/><path d="m338.45 374.56c.0785.35239-.17426.64142-.28631.95672-.59814 1.194-1.3161 2.3624-1.6708 3.6387-.0166.0406-.0403.0955-.0877.11325-.0506.0139-.0931-.0113-.10625-.0471-.11975-.50733.0181-1.0352.14837-1.5174.3408-1.0715.75308-2.1677 1.3296-3.1642.0669-.051.0773-.0942.16074-.11788.20053-.0209.40146-.006.51235.13795z"/><path d="m340.18 374.62c.16112.12138.078.35085.0147.49305-.70093 1.5522-1.8362 2.8906-2.306 4.5185-.12983.34505-.21406.70169-.32187 1.0494-.019.0626-.1105.0645-.17581.0491-.0623-.1476-.044-.33501-.044-.49459.14799-1.308.46059-2.5788 1.0997-3.7175.29056-.56877.57147-1.0804.87634-1.6356.0861-.15688.23029-.29908.43972-.35046.15417-.009.30254.027.4173.0881z"/><path d="m342.1 374.7c.11237.18818.004.39529-.0471.57535-.4459 1.2473-1.2797 2.2797-1.9494 3.4161-.57341.93354-.9486 1.9702-1.3304 2.9838-.13215.30447-.17968.64257-.34003.93197-.0131.0312-.0541.0125-.0822.0205-.0985-.0831-.0858-.20169-.109-.3068.0757-1.2689.56492-2.4154 1.0243-3.5606.57496-1.277 1.3458-2.4965 1.8698-3.8168.073-.16653.21715-.37055.43971-.43315.22295-.0336.39182.0468.52434.18973z"/></g></g></svg>