<svg width="81" height="79" viewBox="0 0 81 79" fill="none" xmlns="http://www.w3.org/2000/svg">
<g clip-path="url(#clip0_482_281)">
<path d="M1.26562 26.5807V21.5177L3.79688 16.4547H11.3906V13.9232L6.32812 11.3917V8.86023H8.85938V6.32873H18.9844L24.2003 1.26575H26.4262L26.5781 3.79724L24.0469 13.9232L18.9844 16.4547V18.9862H35.4375L37.9688 16.4547H43.0312L50.625 21.5177V24.0492V29.1122L48.0938 34.1752V39.2381L45.5625 46.8326V49.3641L53.1562 59.4901L55.6875 62.0216H62.0156L69.6094 56.9586H74.6719L79.7344 62.0216V67.0846L77.2031 72.1476H74.6719L72.1406 69.6161V62.0216H69.6094L64.5469 67.0846L67.0781 72.1476L62.0156 77.2105L59.4844 74.6791V69.6161H55.6875L53.1562 67.0846H48.0938L45.5625 64.5531V62.0216L40.5 56.9586H37.9688L32.9062 54.4271V51.8956L35.4375 49.3641V46.8326L24.0469 36.7067H21.5156L16.4531 34.1752H11.3906L8.85938 31.6437H6.32812L1.26562 26.5807Z" stroke="#4C4C4C" stroke-width="3" stroke-miterlimit="10"/>
<path d="M39.2344 53.1614V56.9586" stroke="#4C4C4C" stroke-width="3" stroke-miterlimit="10"/>
<path d="M24.0469 36.7066L26.257 34.4963" stroke="#4C4C4C" stroke-width="3" stroke-miterlimit="10"/>
<path d="M32.9062 44.3011V39.2382H35.4375L40.5 44.3011V46.8326H35.4375" stroke="#4C4C4C" stroke-width="3" stroke-miterlimit="10"/>
</g>
<defs>
<clipPath id="clip0_482_281">
<rect width="81" height="79" fill="white"/>
</clipPath>
</defs>
</svg>
