<svg width="85" height="72" viewBox="0 0 85 72" fill="none" xmlns="http://www.w3.org/2000/svg">
<g clip-path="url(#clip0_482_267)">
<path d="M1.32812 14.6667L14.6094 18.6667L17.2656 25.3334H19.9219L22.5781 22.6667H29.2188V14.6667L34.5312 4.00004H39.8438L45.1562 1.33337H47.8125L55.7812 4.00004H65.0781V6.66671H73.0469L78.3594 12V22.6667L75.7031 25.3334V28H78.3594L83.6719 33.3334V46.6667L81.0156 49.3334V54.6667L75.7031 60V62.6667L67.7344 70.6667H47.8125V65.3334L50.4688 60V57.3334L45.1562 46.6667H42.5L39.8438 44H37.1875L34.5312 49.3334H31.875V52L34.5312 54.6667V57.3334H29.2188L26.5625 54.6667H19.9219V52H14.6094V41.3334H9.29688V28H11.9531V25.3334L9.29688 22.6667L1.32812 20V9.33337" stroke="#4C4C4C" stroke-width="3" stroke-miterlimit="10"/>
</g>
<defs>
<clipPath id="clip0_482_267">
<rect width="85" height="72" fill="white"/>
</clipPath>
</defs>
</svg>
