<svg width="68" height="69" viewBox="0 0 68 69" fill="none" xmlns="http://www.w3.org/2000/svg">
<g clip-path="url(#clip0_363_159)">
<path d="M3.87988 24.3646C0.398595 37.9193 5.91957 53.2986 19.0472 61.1953C27.8654 66.5006 37.2051 66.9606 42.8334 65.1053M45.6706 41.2313C46.5447 39.2686 47.925 37.444 49.8727 36.0026C53.3539 33.442 59.7337 31.602 63.215 25.5913C67.2484 18.5993 64.3652 9.61397 52.6331 4.0173C43.7996 -0.214698 24.1695 0.490635 12.7901 9.79797" stroke="white" stroke-width="3" stroke-miterlimit="10"/>
<path d="M47.9249 50.7534C45.9772 47.15 7.56043 11.96 5.45939 10.6567C4.20184 9.87471 2.79092 9.82871 2.05479 10.5647C1.31866 11.316 1.36467 12.7114 2.14681 13.9687C3.45037 16.0694 38.6466 54.4794 42.2505 56.4114" stroke="white" stroke-width="3" stroke-miterlimit="10"/>
<path d="M66.4666 62.1307C60.9916 67.4974 55.2406 68.0954 51.2993 67.0374C45.947 65.6114 44.5054 61.5634 45.3642 58.3587C46.223 55.154 48.9988 52.67 53.937 53.9887C58.8753 55.3074 59.9948 61.4714 66.4666 62.1307Z" stroke="white" stroke-width="3" stroke-linejoin="round"/>
<path d="M53.676 24.5334C56.217 24.5334 58.2768 22.4739 58.2768 19.9334C58.2768 17.3929 56.217 15.3334 53.676 15.3334C51.135 15.3334 49.0752 17.3929 49.0752 19.9334C49.0752 22.4739 51.135 24.5334 53.676 24.5334Z" stroke="white" stroke-width="3" stroke-miterlimit="10"/>
<path d="M41.4075 16.8666C43.9484 16.8666 46.0083 14.8071 46.0083 12.2666C46.0083 9.72612 43.9484 7.66663 41.4075 7.66663C38.8665 7.66663 36.8066 9.72612 36.8066 12.2666C36.8066 14.8071 38.8665 16.8666 41.4075 16.8666Z" stroke="white" stroke-width="3" stroke-miterlimit="10"/>
<path d="M27.6047 19.9333C30.1457 19.9333 32.2055 17.8738 32.2055 15.3333C32.2055 12.7928 30.1457 10.7333 27.6047 10.7333C25.0638 10.7333 23.0039 12.7928 23.0039 15.3333C23.0039 17.8738 25.0638 19.9333 27.6047 19.9333Z" stroke="white" stroke-width="3" stroke-miterlimit="10"/>
<path d="M30.6718 52.1333C30.6718 54.6787 28.6168 56.7333 26.071 56.7333C23.5252 56.7333 21.4702 54.6787 21.4702 52.1333C21.4702 49.588 23.5252 47.5333 26.071 47.5333" stroke="white" stroke-width="3" stroke-miterlimit="10"/>
</g>
<defs>
<clipPath id="clip0_363_159">
<rect width="68" height="69" fill="white"/>
</clipPath>
</defs>
</svg>
