<svg width="153" height="151" viewBox="0 0 153 151" fill="none" xmlns="http://www.w3.org/2000/svg">
<g clip-path="url(#clip0_383_137)">
<path d="M32.786 2.69641C32.786 19.0907 19.3439 32.3571 2.73242 32.3571C19.3439 32.3571 32.786 45.6236 32.786 62.0178C32.786 45.6236 46.2281 32.3571 62.8396 32.3571C46.2281 32.3571 32.786 19.0907 32.786 2.69641Z" stroke="#494949" stroke-width="5" stroke-linecap="round" stroke-linejoin="round"/>
<path d="M103.821 56.625C103.821 81.9175 83.0025 102.464 57.375 102.464C83.0025 102.464 103.821 123.011 103.821 148.304C103.821 123.011 124.64 102.464 150.268 102.464C124.64 102.464 103.821 81.9175 103.821 56.625Z" stroke="#494949" stroke-width="5" stroke-linecap="round" stroke-linejoin="round"/>
<path d="M131.143 2.69641C131.143 13.1046 122.564 21.5714 112.018 21.5714C122.564 21.5714 131.143 30.0382 131.143 40.4464C131.143 30.0382 139.722 21.5714 150.268 21.5714C139.722 21.5714 131.143 13.1046 131.143 2.69641Z" stroke="#494949" stroke-width="5" stroke-linecap="round" stroke-linejoin="round"/>
<path d="M8.19629 94.375H13.6606" stroke="#494949" stroke-width="5" stroke-linecap="round" stroke-linejoin="round"/>
<path d="M19.125 88.9821V83.5892" stroke="#494949" stroke-width="5" stroke-linecap="round" stroke-linejoin="round"/>
<path d="M24.5889 94.375H30.0532" stroke="#494949" stroke-width="5" stroke-linecap="round" stroke-linejoin="round"/>
<path d="M19.125 99.7678V105.161" stroke="#494949" stroke-width="5" stroke-linecap="round" stroke-linejoin="round"/>
<path d="M40.9824 132.125H46.4467" stroke="#494949" stroke-width="5" stroke-linecap="round" stroke-linejoin="round"/>
<path d="M51.9111 126.732V121.339" stroke="#494949" stroke-width="5" stroke-linecap="round" stroke-linejoin="round"/>
<path d="M57.375 132.125H62.8393" stroke="#494949" stroke-width="5" stroke-linecap="round" stroke-linejoin="round"/>
<path d="M51.9111 137.518V142.911" stroke="#494949" stroke-width="5" stroke-linecap="round" stroke-linejoin="round"/>
<path d="M62.8389 62.0178H68.3032" stroke="#494949" stroke-width="5" stroke-linecap="round" stroke-linejoin="round"/>
<path d="M73.7676 56.625V51.2322" stroke="#494949" stroke-width="5" stroke-linecap="round" stroke-linejoin="round"/>
<path d="M79.2324 62.0178H84.6967" stroke="#494949" stroke-width="5" stroke-linecap="round" stroke-linejoin="round"/>
<path d="M73.7676 67.4108V72.8036" stroke="#494949" stroke-width="5" stroke-linecap="round" stroke-linejoin="round"/>
<path d="M73.7676 13.4822H79.2319" stroke="#494949" stroke-width="5" stroke-linecap="round" stroke-linejoin="round"/>
<path d="M84.6963 8.08927V2.69641" stroke="#494949" stroke-width="5" stroke-linecap="round" stroke-linejoin="round"/>
<path d="M90.1611 13.4822H95.6254" stroke="#494949" stroke-width="5" stroke-linecap="round" stroke-linejoin="round"/>
<path d="M84.6963 18.875V24.2679" stroke="#494949" stroke-width="5" stroke-linecap="round" stroke-linejoin="round"/>
</g>
<defs>
<clipPath id="clip0_383_137">
<rect width="153" height="151" fill="white"/>
</clipPath>
</defs>
</svg>
