<svg width="90" height="94" viewBox="0 0 90 94" fill="none" xmlns="http://www.w3.org/2000/svg">
<path d="M44.7861 72.6364V3.20459" stroke="#388EA9" stroke-width="3" stroke-miterlimit="10" stroke-linecap="round"/>
<path d="M15.5449 31.3143C8.23586 35.6236 2.92382 43.729 3.00083 54.0852V54.3895C10.821 62.1943 21.1703 63.2427 29.617 59.542C28.9152 69.8652 33.9332 80.5771 44.6658 85.3354L44.9336 85.4546C55.7012 80.6742 60.7087 69.8927 59.9456 59.5383C68.3941 63.2446 78.7486 62.1961 86.5705 54.3895V54.0852C86.651 43.729 81.339 35.6236 74.0299 31.3143C79.3822 27.1242 83.0472 20.4449 82.986 12.2112V11.9326C68.8876 -2.13724 45.7894 7.81209 44.7883 27.7199C44.8146 28.213 44.8268 28.7115 44.8233 29.2156V29.6005H44.8198C44.8093 29.6115 44.7988 29.6207 44.7883 29.6317C44.7778 29.6207 44.7673 29.6115 44.7585 29.6005L44.7568 29.2504V29.2138C44.7533 28.7097 44.7655 28.2111 44.79 27.7181C43.7889 7.81026 20.6907 -2.13907 6.59586 11.9308V12.2094C6.5311 20.443 10.1961 27.1224 15.5502 31.3125L15.5449 31.3143Z" fill="white" stroke="#388EA9" stroke-width="3" stroke-miterlimit="10"/>
</svg>
