<svg width="93" height="71" viewBox="0 0 93 71" fill="none" xmlns="http://www.w3.org/2000/svg">
<g clip-path="url(#clip0_363_328)">
<path d="M46.5 39.6929V69.6988L23.8999 57.3068" stroke="white" stroke-width="3" stroke-linecap="round" stroke-linejoin="round"/>
<path d="M1.2998 15.2799V69.6988L23.8999 57.3068V44.0686" stroke="white" stroke-width="3" stroke-linecap="round" stroke-linejoin="round"/>
<path d="M1.2998 69.6988V15.28L23.8999 1.30127" stroke="white" stroke-width="3" stroke-linecap="round" stroke-linejoin="round"/>
<path d="M46.5 15.28L23.8999 1.30127" stroke="white" stroke-width="3" stroke-linecap="round" stroke-linejoin="round"/>
<path d="M91.7002 15.2799V69.6988L69.1001 57.3068" stroke="white" stroke-width="3" stroke-linecap="round" stroke-linejoin="round"/>
<path d="M46.5 69.6988L69.1001 57.3068V42.4894" stroke="white" stroke-width="3" stroke-linecap="round" stroke-linejoin="round"/>
<path d="M46.5 15.28L69.1001 1.30127L91.7002 15.28V69.6988" stroke="white" stroke-width="3" stroke-linecap="round" stroke-linejoin="round"/>
<path d="M18.8257 35.5L30.0355 28.3746L35.64 35.5L55.5241 22.0061L63.3151 32.0879L74.1744 25.161" stroke="white" stroke-width="3" stroke-linecap="round" stroke-linejoin="round"/>
<path d="M14.0498 38.6556C14.0498 40.3985 12.6386 41.8112 10.8977 41.8112C9.15677 41.8112 7.74561 40.3985 7.74561 38.6556C7.74561 36.9127 9.15677 35.5 10.8977 35.5C12.6386 35.5 14.0498 36.9127 14.0498 38.6556Z" stroke="white" stroke-width="3" stroke-linecap="round" stroke-linejoin="round"/>
<path d="M85.2543 19.3018L79.8511 24.7103" stroke="white" stroke-width="3" stroke-linecap="round" stroke-linejoin="round"/>
<path d="M79.8511 19.3018L85.2543 24.7103" stroke="white" stroke-width="3" stroke-linecap="round" stroke-linejoin="round"/>
</g>
<defs>
<clipPath id="clip0_363_328">
<rect width="93" height="71" fill="white"/>
</clipPath>
</defs>
</svg>
