<svg width="113" height="66" viewBox="0 0 113 66" fill="none" xmlns="http://www.w3.org/2000/svg">
<g clip-path="url(#clip0_368_371)">
<path d="M92.3745 66H57.4909C56.6326 66 55.9384 65.3016 55.9384 64.4382V31.7591L44.3157 64.9558C44.0978 65.5819 43.5091 66 42.8508 66H21.576C20.7177 66 20.0234 65.3016 20.0234 64.4382V38.9287C20.0234 38.0653 20.7177 37.3669 21.576 37.3669C22.4342 37.3669 23.1285 38.0653 23.1285 38.9287V62.8763H41.7521L56.0282 22.1032C56.2799 21.3845 57.0101 20.955 57.7538 21.0816C58.4997 21.2104 59.0457 21.8614 59.0457 22.6208V62.8763H90.8242V36.0514C90.8242 35.188 91.5185 34.4895 92.3768 34.4895C93.2351 34.4895 93.9293 35.188 93.9293 36.0514V64.4382C93.9293 65.3016 93.2351 66 92.3768 66H92.3745Z" fill="#494949"/>
<path d="M3.93647 57.5172C3.54104 57.5172 3.14336 57.3658 2.84004 57.0629C2.23341 56.4549 2.22891 55.4649 2.83555 54.8546L56.6394 0.45885C57.2438 -0.149164 58.2234 -0.153684 58.83 0.449809L111.463 52.6847C112.074 53.2905 112.081 54.2782 111.477 54.893C110.875 55.5078 109.893 55.5123 109.282 54.9066L57.7516 3.76563L5.0374 57.0561C4.73408 57.3612 4.3364 57.5149 3.93647 57.5149V57.5172Z" fill="#494949"/>
<path d="M42.8554 66C42.7768 66 42.6982 65.9932 42.6195 65.9819C41.7725 65.8508 41.1883 65.0552 41.3186 64.2008C42.0398 59.4361 41.404 55.9463 39.4246 53.8352C36.9351 51.1771 32.9741 51.5116 32.9314 51.5139C32.2933 51.5591 31.6822 51.2313 31.3968 50.655C31.1115 50.0786 31.2036 49.3847 31.635 48.9078L56.3474 21.5697C56.9271 20.9301 57.9089 20.8849 58.5403 21.4658C59.1761 22.0467 59.221 23.0344 58.6436 23.6718L36.0656 48.6501C37.8181 49.0163 39.9369 49.8435 41.6579 51.6653C44.3473 54.511 45.2662 58.8891 44.39 64.6732C44.2732 65.4462 43.6104 66 42.8554 66Z" fill="#494949"/>
<path d="M7.51324 65.4327C6.94929 65.4327 6.40332 65.1208 6.12922 64.5806L0.170732 52.8294C-0.220209 52.0609 0.0831069 51.1206 0.847015 50.7273C1.61317 50.3386 2.54783 50.6414 2.93653 51.4077L8.89726 63.1588C9.2882 63.9273 8.98489 64.8676 8.22098 65.2609C7.99405 65.3762 7.75364 65.4327 7.51548 65.4327H7.51324Z" fill="#494949"/>
<path d="M105.485 65.4327C105.246 65.4327 105.006 65.3784 104.779 65.2609C104.015 64.8699 103.712 63.9273 104.103 63.1588L110.064 51.4077C110.452 50.6414 111.389 50.3386 112.153 50.7273C112.917 51.1184 113.22 52.0609 112.829 52.8294L106.869 64.5806C106.595 65.1208 106.051 65.4327 105.485 65.4327Z" fill="#494949"/>
</g>
<defs>
<clipPath id="clip0_368_371">
<rect width="113" height="66" fill="white"/>
</clipPath>
</defs>
</svg>
