<svg width="72" height="146" viewBox="0 0 72 146" fill="none" xmlns="http://www.w3.org/2000/svg">
<g clip-path="url(#clip0_1051_5)">
<path d="M15.6126 104.079C15.2473 103.565 14.6897 103.218 14.068 103.121C13.4463 103.025 12.8054 103.185 12.3055 103.558L0.948559 112.083C-0.0897175 112.86 -0.301218 114.333 0.474285 115.374C1.24979 116.415 2.71747 116.628 3.75575 115.85L13.1964 108.772L29.3217 131.471V143.647C29.3217 144.946 30.3728 146 31.6674 146C32.9621 146 34.0132 144.946 34.0132 143.647V137.341L62.1043 97.3354L68.2571 102.028C69.289 102.813 70.7566 102.613 71.5386 101.578C72.3205 100.543 72.1218 99.0711 71.0899 98.2868L63.0016 92.1153C62.4953 91.7296 61.8544 91.5625 61.2263 91.6653C60.5982 91.7617 60.0342 92.1153 59.6689 92.636L34.0132 129.176V91.3439C35.6796 92.7775 38.1727 93.5811 41.2555 93.5811C44.569 93.5811 48.4016 92.6746 52.042 91.0353C60.3867 87.2746 63.681 77.111 63.822 76.6803C64.1809 75.5424 63.6297 74.3081 62.5402 73.8195C62.3351 73.7295 57.4577 71.5759 51.7088 71.5759C48.8823 71.5759 46.293 72.0967 44.0242 73.1188C40.0762 74.8995 36.6858 77.3745 34.4746 80.0938C34.308 80.2996 34.167 80.5053 34.0132 80.7174V69.6474C35.6796 71.0809 38.1727 71.8845 41.2555 71.8845C44.569 71.8845 48.4016 70.9781 52.042 69.3388C60.3867 65.5781 63.681 55.4144 63.822 54.9837C64.1809 53.8459 63.6297 52.6116 62.5402 52.123C62.3351 52.033 57.4577 49.8794 51.7088 49.8794C48.8823 49.8794 46.293 50.4001 44.0242 51.4223C40.0762 53.203 36.6858 55.678 34.4746 58.3973C34.308 58.603 34.167 58.8087 34.0132 59.0209V47.9508C35.6796 49.3844 38.1727 50.188 41.2555 50.188C44.569 50.188 48.4016 49.2815 52.042 47.6423C60.3867 43.8815 63.681 33.7179 63.822 33.2872C64.1809 32.1493 63.6297 30.915 62.5402 30.4265C62.3351 30.3365 57.4577 28.1829 51.7088 28.1829C48.8823 28.1829 46.293 28.7036 44.0242 29.7257C40.0762 31.5065 36.6858 33.9815 34.4746 36.7008C34.308 36.9065 34.167 37.1122 34.0132 37.3243V34.1486C38.5444 32.58 41.7618 25.8364 41.7618 17.235C41.7618 8.05492 33.8722 0.874167 33.5389 0.578451C32.648 -0.218696 31.3021 -0.218696 30.4177 0.578451C30.0844 0.880595 22.1948 8.06134 22.1948 17.235C22.1948 25.4379 25.1237 31.9436 29.3345 33.885V36.5336C27.1234 33.885 23.7971 31.4679 19.9324 29.7257C17.6571 28.7036 15.0742 28.1829 12.2478 28.1829C6.49885 28.1829 1.62152 30.33 1.41642 30.4265C0.326875 30.915 -0.224309 32.1429 0.134601 33.2872C0.269193 33.7179 3.56348 43.8751 11.9146 47.6423C15.5549 49.2815 19.3876 50.188 22.7011 50.188C25.4186 50.188 27.6938 49.5708 29.3345 48.4394V58.2302C27.1234 55.5751 23.7971 53.1644 19.9324 51.4223C17.6571 50.4001 15.0742 49.8794 12.2478 49.8794C6.49885 49.8794 1.62152 52.0266 1.41642 52.123C0.326875 52.6116 -0.224309 53.8394 0.134601 54.9837C0.269193 55.4144 3.56348 65.5716 11.9146 69.3388C15.5549 70.9781 19.3876 71.8845 22.7011 71.8845C25.4186 71.8845 27.6938 71.2674 29.3345 70.1359V79.9267C27.1234 77.2781 23.7971 74.861 19.9324 73.1188C17.6571 72.0967 15.0742 71.5759 12.2478 71.5759C6.49885 71.5759 1.62152 73.7231 1.41642 73.8195C0.326875 74.3081 -0.224309 75.536 0.134601 76.6803C0.269193 77.111 3.56348 87.2682 11.9146 91.0353C15.5549 92.6746 19.3876 93.5811 22.7011 93.5811C25.4186 93.5811 27.6938 92.9639 29.3345 91.8325V123.365L15.6318 104.079H15.6126ZM38.0958 83.0703C39.8263 80.9424 42.6847 78.8788 45.9341 77.4131C47.6005 76.661 49.5361 76.2817 51.7023 76.2817C54.3557 76.2817 56.8296 76.8538 58.496 77.3617C58.1499 78.1074 57.7013 79.001 57.1309 79.946C55.7593 82.2217 53.4328 85.2496 50.1193 86.741C47.0686 88.1167 43.9217 88.8753 41.2491 88.8753C38.8457 88.8753 37.0639 88.2453 36.6089 87.2232C36.1987 86.2974 36.7691 84.7096 38.1022 83.0703H38.0958ZM38.0958 61.3802C39.8263 59.2459 42.6847 57.1887 45.9341 55.723C47.6005 54.9709 49.5361 54.5916 51.7023 54.5916C54.3493 54.5916 56.8232 55.1637 58.496 55.6716C57.2334 58.4037 54.5352 63.0645 50.1193 65.0573C47.0686 66.4331 43.9217 67.1916 41.2491 67.1916C38.8457 67.1916 37.0639 66.5616 36.6089 65.5395C36.1987 64.6138 36.7691 63.0259 38.1022 61.3866L38.0958 61.3802ZM38.0958 39.6901C39.8263 37.5622 42.6847 35.4986 45.9341 34.0329C47.6005 33.2808 49.5361 32.9015 51.7023 32.9015C54.3557 32.9015 56.8296 33.4736 58.496 33.9815C58.1499 34.7272 57.7013 35.6208 57.1309 36.5658C55.7593 38.8415 53.4328 41.8694 50.1193 43.3608C47.0686 44.7365 43.9217 45.4951 41.2491 45.4951C38.8457 45.4951 37.0639 44.8651 36.6089 43.8429C36.1987 42.9172 36.7691 41.3294 38.1022 39.6901H38.0958ZM27.3221 43.8429C26.867 44.8587 25.0853 45.4951 22.6819 45.4951C20.0157 45.4951 16.8624 44.7365 13.8117 43.3608C9.38936 41.3679 6.69113 36.7072 5.42853 33.975C7.08849 33.4736 9.556 32.9015 12.2222 32.9015C14.3821 32.9015 16.324 33.2808 17.9904 34.0329C21.2398 35.4986 24.0919 37.5558 25.8287 39.6901C27.1618 41.3294 27.7323 42.9237 27.3221 43.8429ZM27.3221 65.5331C26.867 66.5488 25.0853 67.1852 22.6819 67.1852C20.0157 67.1852 16.8624 66.4266 13.8117 65.0509C9.39577 63.058 6.69113 58.3973 5.43494 55.6651C7.10131 55.1573 9.57523 54.5851 12.2286 54.5851C14.3885 54.5851 16.3304 54.9644 17.9968 55.7166C21.2462 57.1823 24.0983 59.2395 25.8352 61.3737C27.1682 63.013 27.7387 64.6073 27.3285 65.5266L27.3221 65.5331ZM27.3221 87.2232C26.867 88.2453 25.0853 88.8753 22.6819 88.8753C20.0157 88.8753 16.8624 88.1167 13.8117 86.741C9.38936 84.7481 6.69113 80.0874 5.42853 77.3553C7.08849 76.8538 9.556 76.2817 12.2222 76.2817C14.3821 76.2817 16.324 76.661 17.9904 77.4131C21.2398 78.8788 24.0919 80.936 25.8287 83.0703C27.1618 84.7096 27.7323 86.3039 27.3221 87.2232ZM26.867 17.2542C26.867 12.3942 30.0011 8.00992 31.9687 5.74062C32.507 6.35776 33.1287 7.14205 33.7568 8.05492C35.263 10.2406 37.0639 13.6092 37.0639 17.2607C37.0639 24.9236 34.0452 29.8157 31.9623 29.8157C29.8793 29.8157 26.8606 24.9236 26.8606 17.2607L26.867 17.2542Z" fill="#494949"/>
</g>
<defs>
<clipPath id="clip0_1051_5">
<rect width="72" height="146" fill="white"/>
</clipPath>
</defs>
</svg>
