<svg width="94" height="91" viewBox="0 0 94 91" fill="none" xmlns="http://www.w3.org/2000/svg">
<g clip-path="url(#clip0_385_361)">
<path d="M93.9474 39.7228C93.9291 32.809 88.8041 30.9945 84.2802 29.3935C82.3006 28.6929 80.2592 27.9694 78.6454 26.8462V25.7506C81.704 23.4835 83.6904 19.8359 83.6904 15.7336V12.4421C83.6904 5.58116 78.1356 -0.000388611 71.3075 -0.000388611C64.4794 -0.000388611 58.9246 5.58116 58.9246 12.4421V15.7336C58.9246 19.8337 60.9088 23.4766 63.9628 25.746V26.8623C62.3741 28.0429 60.7053 28.8216 58.9474 29.6416C55.1642 31.4056 51.2507 33.2294 48.7887 39.0958L46.9966 43.3704L45.2044 39.0958C42.7424 33.2271 38.8312 31.4033 35.0457 29.6416C33.2878 28.8239 31.6191 28.0452 30.0303 26.8623V25.7437C33.0844 23.4766 35.0686 19.8314 35.0686 15.7313V12.4398C35.0686 5.57887 29.5137 -0.00268555 22.6856 -0.00268555C15.8575 -0.00268555 10.3027 5.57887 10.3027 12.4398V15.7313C10.3027 19.8337 12.2915 23.4812 15.3478 25.7483V26.8439C13.7339 27.9671 11.6949 28.6906 9.71295 29.3912C5.19822 30.9945 0.07315 32.809 0.0525765 39.7228L0 59.341C0 59.4167 0.00457187 59.4925 0.0160016 59.5683C0.45033 62.7335 3.0563 64.9524 6.07831 64.7273C6.75723 64.6767 7.39501 64.5091 7.97792 64.2449L7.38358 85.3055C7.38358 85.3308 7.38358 85.356 7.38358 85.3813C7.43844 88.4799 9.95983 91.0019 13.007 91.0019H14.4677C17.4417 91.0019 19.8579 88.6246 20.0842 85.4847L21.2295 71.4182H24.1601L25.3053 85.4847C25.5613 88.6292 27.9776 91.0019 30.9219 91.0019H32.3826C35.432 91.0019 37.9534 88.4799 38.006 85.379C38.006 85.3537 38.006 85.3308 38.006 85.3055L37.039 51.072L41.4417 58.8195C41.5652 59.6395 41.8761 60.4182 42.3698 61.1096C43.4717 62.6508 45.337 63.5581 47.1246 63.4272C48.903 63.294 50.4758 62.3384 51.4381 60.8018C51.4542 60.7765 51.4679 60.7536 51.4816 60.7283L56.9678 51.072L56.0009 85.3055C56.0009 85.3308 56.0009 85.3537 56.0009 85.379C56.0512 88.4799 58.5748 91.0019 61.6243 91.0019H63.085C66.0316 91.0019 68.4455 88.6292 68.7015 85.4847L69.8468 71.4182H72.7774L73.9226 85.4686C74.1512 88.6223 76.5652 90.9996 79.5415 90.9996H81.0022C84.047 90.9996 86.5707 88.4776 86.6256 85.379C86.6256 85.3537 86.6256 85.3285 86.6256 85.3032L86.0312 64.2426C86.6141 64.5091 87.2542 64.6744 87.9308 64.725C90.946 64.9478 93.5588 62.7312 93.9931 59.566C94.0023 59.4902 94.0091 59.4145 94.0091 59.3386L93.9566 39.7205L93.9474 39.7228ZM62.1683 15.7336V12.4421C62.1683 7.37737 66.2693 3.25667 71.3098 3.25667C76.3503 3.25667 80.4513 7.37737 80.4513 12.4421V15.7336C80.4513 20.7984 76.3503 24.9191 71.3098 24.9191C66.2693 24.9191 62.1683 20.7984 62.1683 15.7336ZM13.5487 15.7336V12.4421C13.5487 7.37737 17.6497 3.25667 22.6902 3.25667C27.7307 3.25667 31.8317 7.37737 31.8317 12.4421V15.7336C31.8317 20.7984 27.7307 24.9191 22.6902 24.9191C17.6497 24.9191 13.5487 20.7984 13.5487 15.7336ZM42.4956 54.1131L36.6573 43.8389C36.623 43.7746 36.5818 43.7126 36.5407 43.6529C36.3967 43.4553 36.2161 43.2991 36.0104 43.1866C35.8206 43.0832 35.6103 43.0143 35.384 42.9937C35.1874 42.9753 34.9885 42.9937 34.7942 43.0465C34.5999 43.1016 34.4216 43.1912 34.2662 43.3083C34.081 43.4462 33.9324 43.6184 33.825 43.8091C33.7107 44.0089 33.6376 44.2363 33.6193 44.4775C33.6124 44.5487 33.6124 44.6199 33.6147 44.6934L34.7645 85.356C34.7257 86.6768 33.6627 87.7449 32.3826 87.7449H30.9219C29.4886 87.7449 28.6359 86.4724 28.5331 85.2182L27.2667 69.6588C27.1981 68.8135 26.4963 68.1635 25.6528 68.1635H19.7368C18.8933 68.1635 18.1915 68.8135 18.1229 69.6588L16.8542 85.2343C16.7513 86.6676 15.725 87.7472 14.4677 87.7472H13.007C11.7269 87.7472 10.6639 86.6768 10.625 85.356L11.7749 44.6612C11.8 43.7631 11.0959 43.0143 10.2021 42.9891C9.29919 42.9615 8.56312 43.6712 8.53569 44.5694L8.14936 58.2798C8.10365 58.436 8.0785 58.6036 8.08079 58.7759C8.10593 60.2207 7.14355 61.3852 5.84057 61.4817C4.57873 61.5782 3.4792 60.6112 3.24374 59.2261L3.29632 39.7343C3.30775 35.3334 6.01659 34.1596 10.7988 32.4668C13.295 31.5825 15.8758 30.6683 18.0018 28.9203C18.3789 28.6102 18.5961 28.1486 18.5961 27.6616V27.4802C19.8785 27.9326 21.2569 28.1807 22.6925 28.1807C24.1281 28.1807 25.5111 27.9326 26.7958 27.4779V27.6639C26.7958 28.1532 27.0129 28.6148 27.3901 28.9226C29.4726 30.6338 31.6145 31.633 33.6879 32.6C37.2082 34.24 40.2485 35.6572 42.2235 40.366L45.2433 47.5692L42.4956 54.12V54.1131ZM88.1617 61.4817C86.8587 61.3852 85.8964 60.2207 85.9215 58.7759C85.9238 58.6036 85.9009 58.436 85.8529 58.2798L85.4666 44.5716C85.4415 43.6735 84.6871 42.9615 83.8002 42.9914C82.9064 43.0166 82.2023 43.7654 82.2274 44.6635L83.3773 85.3583C83.3361 86.6791 82.2754 87.7495 80.9953 87.7495H79.5346C78.2773 87.7495 77.2509 86.6699 77.1458 85.2228L75.8794 69.6634C75.8108 68.8181 75.109 68.1681 74.2655 68.1681H68.3495C67.506 68.1681 66.8042 68.8181 66.7356 69.6634L65.4692 85.2251C65.3664 86.4815 64.5137 87.7517 63.0804 87.7517H61.6197C60.3373 87.7517 59.2766 86.6837 59.2378 85.3629L60.3876 44.698C60.3899 44.6291 60.3876 44.5625 60.3853 44.4936C60.367 44.2501 60.2962 44.0227 60.1819 43.8205C60.0721 43.623 59.919 43.4461 59.7292 43.306C59.5784 43.1958 59.4092 43.1085 59.224 43.0557C59.0206 42.9959 58.8172 42.9799 58.6183 42.9982C58.3943 43.0189 58.1817 43.0855 57.9919 43.1912C57.7816 43.306 57.5942 43.4691 57.4479 43.6758C57.4113 43.7287 57.377 43.7815 57.3473 43.8389L48.6767 59.0975C48.2607 59.7429 47.6252 60.1288 46.8823 60.1839C46.3199 60.2253 45.4924 59.906 44.9987 59.2146C44.7861 58.916 44.6603 58.5876 44.6238 58.2338C44.6238 58.1925 44.6192 58.1511 44.6146 58.1121C44.5963 57.717 44.6832 57.2921 44.8729 56.835L51.7788 40.366C53.7538 35.6572 56.7941 34.24 60.3144 32.6C62.3878 31.633 64.532 30.6361 66.6122 28.9226C66.9871 28.6125 67.2065 28.1509 67.2065 27.6639V27.4779C68.4912 27.9326 69.8719 28.1807 71.3098 28.1807C72.7477 28.1807 74.1238 27.9349 75.4062 27.4802V27.6616C75.4062 28.1509 75.6234 28.6125 76.0005 28.9203C78.1287 30.6683 80.7073 31.5825 83.2035 32.4668C87.988 34.1619 90.6945 35.3334 90.706 39.7343L90.7585 59.2261C90.5231 60.6112 89.4281 61.5782 88.1617 61.4817Z" fill="#494949"/>
</g>
<defs>
<clipPath id="clip0_385_361">
<rect width="94" height="91" fill="white"/>
</clipPath>
</defs>
</svg>
