<svg width="57" height="68" viewBox="0 0 57 68" fill="none" xmlns="http://www.w3.org/2000/svg">
<g clip-path="url(#clip0_368_356)">
<path d="M29.59 23.8702H27.4097V58.3137H29.59V23.8702Z" fill="white"/>
<path d="M44.9927 59.6089L43.0304 58.6591L54.4227 34.8124L28.5001 24.2234L2.57757 34.8045L13.9698 58.6512L12.0075 59.601L0.109127 34.7025C-0.0232501 34.4277 -0.031037 34.1138 0.0779794 33.8312C0.186996 33.5486 0.405029 33.321 0.685356 33.2111L28.0952 22.0177C28.3599 21.9078 28.6481 21.9078 28.9128 22.0177L56.3227 33.2111C56.603 33.3288 56.821 33.5486 56.93 33.8312C57.039 34.1138 57.0235 34.4277 56.8989 34.7025L45.0005 59.601L44.9927 59.6089Z" fill="white"/>
<path d="M13.0275 35.3148H9.64795V37.5127H13.0275V35.3148Z" fill="white"/>
<path d="M47.3287 35.3148H43.9492V37.5127H47.3287V35.3148Z" fill="white"/>
<path d="M47.7178 30.456H45.5375V16.9706H11.4621V30.456H9.28174V15.8716C9.28174 15.2672 9.77231 14.7727 10.3719 14.7727H46.6276C47.2272 14.7727 47.7178 15.2672 47.7178 15.8716V30.456Z" fill="white"/>
<path d="M40.227 15.8716H38.0467V10.1886H18.9455V15.8716H16.7651V9.08965C16.7651 8.48524 17.2557 7.99072 17.8553 7.99072H39.1369C39.7364 7.99072 40.227 8.48524 40.227 9.08965V15.8716Z" fill="white"/>
<path d="M29.528 8.70507H27.3477V1.09893C27.3477 0.494517 27.8382 0 28.4378 0H36.8165C37.2136 0 37.5796 0.219785 37.7743 0.573012C37.969 0.926238 37.9456 1.35796 37.7354 1.69549L36.6997 3.32033H42.9214V5.51818H34.6985C34.3013 5.51818 33.9354 5.2984 33.7407 4.94517C33.546 4.59194 33.5694 4.16022 33.7796 3.82269L34.8153 2.19785H29.528V8.70507Z" fill="white"/>
<path d="M13.3699 68C10.8781 68 8.70557 66.3908 7.96582 63.9968L10.0449 63.3374C10.5043 64.8053 11.8359 65.7943 13.3699 65.7943C15.0752 65.7943 16.5548 64.507 16.8039 62.8036L16.9441 61.8695H19.9031L20.0433 62.8036C20.3002 64.507 21.7798 65.7864 23.4773 65.7864C25.1826 65.7864 26.6621 64.4991 26.9113 62.7958L27.0515 61.8617H30.0416L30.1818 62.7879C30.4388 64.4913 31.9105 65.7707 33.6158 65.7786C35.3211 65.7786 36.7929 64.4991 37.0498 62.7958L37.19 61.8617H40.149L40.2892 62.8036C40.5384 64.507 42.0179 65.7864 43.7232 65.7943C45.2572 65.7943 46.5888 64.8053 47.0482 63.3374L49.1273 63.9968C48.3798 66.3908 46.2072 67.9921 43.7232 68C41.5507 68 39.6117 66.7205 38.6695 64.8366C37.7273 66.7127 35.7806 67.9843 33.6158 67.9843H33.608C31.4277 67.9843 29.4732 66.6891 28.5388 64.7896C27.6043 66.6891 25.6498 67.9843 23.4695 67.9921H23.4617C21.297 67.9921 19.3502 66.7205 18.408 64.8445C17.4658 66.7205 15.5269 68 13.3543 68.0078L13.3699 68Z" fill="white"/>
</g>
<defs>
<clipPath id="clip0_368_356">
<rect width="57" height="68" fill="white"/>
</clipPath>
</defs>
</svg>
