<svg width="89" height="71" viewBox="0 0 89 71" fill="none" xmlns="http://www.w3.org/2000/svg">
<path d="M48.2492 10.2236C53.2461 32.02 47.1816 51.9258 34.7074 54.6815C22.2331 57.4373 8.06854 42.0031 3.07376 20.2067C2.64588 18.339 2.29849 16.4838 2.02947 14.6536C1.7774 12.9315 3.18179 11.5568 4.72809 12.0164C10.8138 13.8258 17.8632 14.1295 25.0482 12.5426C32.2333 10.9557 38.4715 7.71538 43.1803 3.52041C44.3771 2.45347 46.2475 3.10445 46.7707 4.7683C47.3278 6.53613 47.8213 8.35596 48.2513 10.2257L48.2492 10.2236Z" stroke="white" stroke-width="3" stroke-linecap="round" stroke-linejoin="round"/>
<path d="M32.7655 44.7627C38.6653 43.6859 40.4516 39.6477 40.9839 37.0424C41.1487 36.2366 40.015 35.6909 39.2221 36.1932C36.5963 37.8536 33.79 38.7444 31.1686 39.1726C28.5761 39.6965 25.5894 39.8646 22.3466 39.2755C21.3644 39.0967 20.6272 39.9838 21.2018 40.6559C23.0593 42.824 26.8055 45.8522 32.7031 44.7753L32.7677 44.7627H32.7655Z" stroke="white" stroke-width="3" stroke-miterlimit="10"/>
<path d="M37.8565 16.8273C40.7626 16.1735 43.5923 17.7587 44.1783 20.3672C44.1783 20.3738 44.1805 20.3781 44.1827 20.3847C44.3204 21.0122 43.6185 21.467 43.074 21.1303C41.8451 20.3694 40.3953 20.1529 38.6918 20.5356C36.9577 20.9269 35.7638 21.6616 34.97 22.9429C34.6354 23.483 33.8045 23.3714 33.6623 22.7505C33.6623 22.7439 33.6601 22.7395 33.6579 22.733C33.0719 20.1245 34.9481 17.481 37.8565 16.8251V16.8273Z" stroke="white" stroke-width="3" stroke-miterlimit="10"/>
<path d="M14.9199 21.9896C17.8261 21.3358 20.6557 22.9211 21.2418 25.5295C21.2418 25.5361 21.244 25.5405 21.2462 25.547C21.3839 26.1746 20.682 26.6294 20.1375 26.2926C18.9085 25.5317 17.4587 25.3153 15.7553 25.6979C14.0212 26.0893 12.8272 26.824 12.0335 28.1052C11.6989 28.6453 10.8679 28.5338 10.7258 27.9128C10.7258 27.9063 10.7236 27.9019 10.7214 27.8953C10.1354 25.2868 12.0116 22.6434 14.9199 21.9874V21.9896Z" stroke="white" stroke-width="3" stroke-miterlimit="10"/>
<path d="M50.3655 18C54.1819 21.6268 58.9939 24.6439 64.5456 26.6411C71.4135 29.1121 78.3736 29.6475 84.5688 28.5406C86.1427 28.2601 87.3583 29.8217 86.9035 31.5385C86.4194 33.3636 85.8556 35.2014 85.2101 37.0457C77.6799 58.5559 61.9112 72.5151 49.9882 68.2254C44.3841 66.2091 40.6263 60.6573 39 52.9574" stroke="white" stroke-width="3" stroke-linecap="round" stroke-linejoin="round"/>
<path d="M70.8325 44.4777C68.0269 43.4829 66.4765 40.6317 67.3709 38.1128C67.3709 38.1063 67.3753 38.1019 67.3774 38.0954C67.5939 37.4919 68.4315 37.4788 68.7135 38.056C69.3455 39.3548 70.4585 40.3103 72.1052 40.8941C73.7802 41.4888 75.1819 41.5019 76.5377 40.8416C77.1084 40.5617 77.7513 41.1018 77.5414 41.7009C77.5414 41.7075 77.537 41.7118 77.5348 41.7184C76.6404 44.2372 73.6424 45.4748 70.8325 44.4777Z" stroke="white" stroke-width="3" stroke-miterlimit="10"/>
<path d="M49.947 33.0358C51.622 33.6305 53.0237 33.6436 54.3795 32.9833C54.9502 32.7034 55.5931 33.2435 55.3832 33.8426C55.3832 33.8492 55.3788 33.8535 55.3767 33.8601C54.4823 36.3789 51.4843 37.6165 48.6743 36.6195" stroke="white" stroke-width="3" stroke-miterlimit="10"/>
<path d="M71.867 50.6415C71.867 50.6415 67.9156 54.7259 69.4879 56.1864C71.0601 57.647 72.3787 54.059 71.867 50.6415Z" stroke="white" stroke-width="3" stroke-miterlimit="10"/>
<path d="M55.0176 51.8862C49.1596 50.601 45.9525 53.6361 44.4553 55.8337C43.9921 56.5134 44.8271 57.4545 45.7524 57.2974C48.8158 56.7798 51.7484 57.042 54.3318 57.6593C56.9255 58.1772 59.7454 59.1756 62.5092 60.9712C63.3461 61.5155 64.3687 60.9819 64.0982 60.14C63.2221 57.4228 60.936 53.1829 55.08 51.8986L55.0156 51.8853L55.0176 51.8862Z" stroke="white" stroke-width="3" stroke-miterlimit="10"/>
</svg>
