<svg width="64" height="70" viewBox="0 0 64 70" fill="none" xmlns="http://www.w3.org/2000/svg">
<g clip-path="url(#clip0_368_377)">
<path d="M32.0009 70C14.3554 70 0 55.5637 0 37.8187C0 20.0737 14.3554 5.63916 32.0009 5.63916C49.6464 5.63916 64.0019 20.0755 64.0019 37.8187C64.0019 55.5618 49.6464 70 32.0009 70ZM32.0009 8.23865C15.7807 8.23865 2.58491 21.5088 2.58491 37.8187C2.58491 54.1285 15.7807 67.4005 32.0009 67.4005C48.2212 67.4005 61.417 54.1304 61.417 37.8187C61.417 21.507 48.2193 8.23865 32.0009 8.23865Z" fill="#494949"/>
<path d="M32.0064 11.7128C17.6884 11.7128 6.0376 23.4293 6.0376 37.828C6.0376 51.0399 15.8797 62.0097 28.5798 63.6838V61.0673C17.3012 59.4102 8.62251 49.6104 8.62251 37.828C8.62251 24.8607 19.1099 14.3141 32.0046 14.3141C32.4404 14.3141 32.8781 14.3311 33.297 14.3461V11.7466C32.8762 11.7297 32.4404 11.7146 32.0046 11.7146L32.0064 11.7128ZM35.433 11.9573V14.5737C46.6967 16.2308 55.3735 26.0307 55.3735 37.828C55.3735 50.7803 44.8861 61.3269 32.0064 61.3269C31.5706 61.3269 31.133 61.31 30.714 61.2949V63.8944C31.1498 63.9113 31.5706 63.9264 32.0064 63.9264C46.3076 63.9264 57.9585 52.2099 57.9585 37.828C57.9585 24.5992 48.1182 13.6313 35.4312 11.9573H35.433Z" fill="#494949"/>
<path d="M32.0011 42.7806C29.2797 42.7806 27.0688 40.5554 27.0688 37.8186C27.0688 35.0818 29.2815 32.8585 32.0011 32.8585C34.7207 32.8585 36.9334 35.0837 36.9334 37.8186C36.9334 40.5535 34.7207 42.7806 32.0011 42.7806ZM32.0011 35.458C30.7068 35.458 29.6538 36.517 29.6538 37.8186C29.6538 39.1202 30.7087 40.1811 32.0011 40.1811C33.2936 40.1811 34.3485 39.1202 34.3485 37.8186C34.3485 36.517 33.2936 35.458 32.0011 35.458Z" fill="#494949"/>
<path d="M35.3133 40.5761C35.0926 40.5761 34.8681 40.5197 34.6642 40.3993C34.047 40.0382 33.8375 39.2425 34.1966 38.6218L40.3578 27.9887L31.0319 35.6029C30.482 36.0543 29.6646 35.9734 29.2139 35.4129C28.765 34.8543 28.8472 34.036 29.4028 33.5846L44.2221 21.4863C44.7046 21.0894 45.4042 21.0988 45.8774 21.5088C46.3506 21.917 46.4684 22.6073 46.1542 23.1509L36.4318 39.9329C36.1924 40.3467 35.7584 40.578 35.3133 40.578V40.5761Z" fill="#494949"/>
<path d="M18.7791 54.6306C18.4817 54.6306 18.1824 54.5272 17.9411 54.3203C17.4642 53.914 17.3482 53.2218 17.6606 52.6782L27.5252 35.5859C27.8843 34.9652 28.6736 34.7508 29.2927 35.1138C29.9118 35.4749 30.1213 36.2706 29.7622 36.8913L23.4664 47.799L32.6707 40.2319C33.2224 39.7786 34.0361 39.8595 34.4887 40.4143C34.9413 40.9711 34.8591 41.7893 34.3054 42.2426L19.5946 54.3353C19.3571 54.531 19.0671 54.6288 18.7772 54.6288L18.7791 54.6306Z" fill="#494949"/>
<path d="M32.001 18.9921C31.2883 18.9921 30.7085 18.4109 30.7085 17.6923V13.4451C30.7085 12.7266 31.2883 12.1454 32.001 12.1454C32.7136 12.1454 33.2934 12.7266 33.2934 13.4451V17.6923C33.2934 18.4109 32.7136 18.9921 32.001 18.9921Z" fill="#494949"/>
<path d="M32.001 63.8643C31.2883 63.8643 30.7085 63.2831 30.7085 62.5645V58.3173C30.7085 57.5988 31.2883 57.0176 32.001 57.0176C32.7136 57.0176 33.2934 57.5988 33.2934 58.3173V62.5645C33.2934 63.2831 32.7136 63.8643 32.001 63.8643Z" fill="#494949"/>
<path d="M11.8025 39.3046H7.57908C6.86645 39.3046 6.28662 38.7234 6.28662 38.0048C6.28662 37.2863 6.86645 36.7051 7.57908 36.7051H11.8025C12.5151 36.7051 13.0949 37.2863 13.0949 38.0048C13.0949 38.7234 12.5151 39.3046 11.8025 39.3046Z" fill="#494949"/>
<path d="M56.4211 39.3046H52.1977C51.4851 39.3046 50.9053 38.7234 50.9053 38.0048C50.9053 37.2863 51.4851 36.7051 52.1977 36.7051H56.4211C57.1338 36.7051 57.7136 37.2863 57.7136 38.0048C57.7136 38.7234 57.1338 39.3046 56.4211 39.3046Z" fill="#494949"/>
<path d="M32.001 8.23867C31.2883 8.23867 30.7085 7.65745 30.7085 6.93892V2.65033C30.7085 1.9318 31.2883 1.35059 32.001 1.35059C32.7136 1.35059 33.2934 1.9318 33.2934 2.65033V6.9408C33.2934 7.65933 32.7136 8.24055 32.001 8.24055V8.23867Z" fill="#494949"/>
<path d="M35.8186 2.59949H28.393C27.6804 2.59949 27.1006 2.01827 27.1006 1.29974C27.1006 0.581217 27.6804 0 28.393 0H35.8186C36.5312 0 37.111 0.581217 37.111 1.29974C37.111 2.01827 36.5312 2.59949 35.8186 2.59949Z" fill="#494949"/>
</g>
<defs>
<clipPath id="clip0_368_377">
<rect width="64" height="70" fill="white"/>
</clipPath>
</defs>
</svg>
