<svg width="65" height="71" viewBox="0 0 65 71" fill="none" xmlns="http://www.w3.org/2000/svg">
<g clip-path="url(#clip0_367_349)">
<path d="M24.5818 63.6633L56.55 57.8058C56.9045 57.7467 57.2591 57.7023 57.6284 57.7023C60.8931 57.7023 63.5375 60.35 63.5375 63.6189C63.5375 66.8879 60.8931 69.5356 57.6284 69.5356H25.1284C23.5034 69.5356 22.1738 68.2044 22.1738 66.5773C22.1738 65.1277 23.2227 63.9296 24.5966 63.6781L24.5818 63.6633Z" stroke="white" stroke-width="2" stroke-miterlimit="10"/>
<path d="M38.409 11.8333C38.409 15.1023 35.7647 17.75 32.4999 17.75C29.2351 17.75 26.5908 15.1023 26.5908 11.8333V7.39579C26.5908 4.12683 29.2351 1.47913 32.4999 1.47913C35.7647 1.47913 38.409 4.12683 38.409 7.39579V11.8333Z" stroke="white" stroke-width="2" stroke-miterlimit="10"/>
<path d="M63.5225 51.7709H57.6134L49.1339 45.7063C47.9668 44.878 47.2725 43.5319 47.2725 42.0971V30.3674C47.2725 27.5865 45.2486 25.2051 42.4861 24.6578C35.868 23.3561 29.1021 23.3561 22.4839 24.6578C19.7214 25.2051 17.7418 27.5865 17.7418 30.3674V42.0971C17.7418 43.5319 17.0475 44.878 15.8805 45.7063L7.40091 51.7709H1.47705" stroke="white" stroke-width="2" stroke-miterlimit="10"/>
<path d="M32.4998 62.199L8.46455 57.791C8.11001 57.7319 7.75546 57.6875 7.38614 57.6875C4.12137 57.6875 1.47705 60.3352 1.47705 63.6042C1.47705 66.8731 4.12137 69.5208 7.38614 69.5208H25.1134" stroke="white" stroke-width="2" stroke-miterlimit="10"/>
<path d="M41.3638 32.5416V41.7125C41.3638 45.44 41.866 49.1527 42.841 52.747L44.8058 59.9506" stroke="white" stroke-width="2" stroke-miterlimit="10"/>
<path d="M23.6364 32.5416V41.7125C23.6364 45.44 23.1341 49.1527 22.1591 52.747L20.1943 59.9506" stroke="white" stroke-width="2" stroke-miterlimit="10"/>
</g>
<defs>
<clipPath id="clip0_367_349">
<rect width="65" height="71" fill="white"/>
</clipPath>
</defs>
</svg>
