<svg width="162" height="137" viewBox="0 0 162 137" fill="none" xmlns="http://www.w3.org/2000/svg">
<g clip-path="url(#clip0_381_129)">
<path d="M133.965 74.0757C134.104 71.6084 132.216 69.4955 129.747 69.3562C127.278 69.217 125.164 71.1042 125.025 73.5715C124.885 76.0387 126.774 78.1517 129.243 78.2909C131.711 78.4302 133.826 76.5429 133.965 74.0757Z" fill="#494949"/>
<path d="M68.9186 42.6824C67.2075 42.6824 65.8184 44.0686 65.8184 45.7807C65.8184 47.4928 67.2055 48.879 68.9186 48.879H97.3861C99.0972 48.879 100.486 47.4928 100.486 45.7807C100.486 44.0686 99.0992 42.6824 97.3861 42.6824H68.9186Z" fill="#494949"/>
<path d="M83.1548 35.1096C92.8403 35.1096 100.722 27.2332 100.722 17.5538C100.722 7.87431 92.8403 0 83.1548 0C73.4692 0 65.5879 7.87633 65.5879 17.5558C65.5879 27.2353 73.4672 35.1116 83.1548 35.1116V35.1096ZM83.1548 6.19462C89.4221 6.19462 94.5211 11.2904 94.5211 17.5538C94.5211 23.8172 89.4221 28.9129 83.1548 28.9129C76.8874 28.9129 71.7884 23.8172 71.7884 17.5538C71.7884 11.2904 76.8874 6.19462 83.1548 6.19462Z" fill="#494949"/>
<path d="M159.858 76.256C153.856 74.3092 150.729 69.685 149.915 68.3149C148.919 60.5317 145.6 53.1957 140.41 46.7602L149.925 37.2507C150.506 36.6699 150.832 35.8807 150.832 35.0611C150.832 34.2415 150.506 33.4522 149.925 32.8694C145.575 28.5224 139.794 26.1304 133.644 26.1304C128.6 26.1304 123.805 27.7433 119.842 30.7202C116.65 29.1437 113.258 27.7595 109.68 26.5958C108.05 26.0656 106.302 26.954 105.772 28.5811C105.241 30.2082 106.13 31.9567 107.758 32.4869C110.879 33.5028 113.835 34.7049 116.628 36.0567C116.776 36.4918 117.013 36.9047 117.359 37.2528C118.57 38.4629 120.532 38.4629 121.743 37.2528C124.92 34.0755 129.146 32.327 133.642 32.327C137.084 32.327 140.371 33.353 143.147 35.2614L124.39 54.0072C123.179 55.2174 123.179 57.1783 124.39 58.3885C124.995 58.9936 125.789 59.2952 126.581 59.2952C127.373 59.2952 128.168 58.9916 128.772 58.3885L136.003 51.1618C140.357 56.7331 143.087 63.0148 143.826 69.6323C143.872 70.0431 143.998 70.4297 144.186 70.7757C144.711 71.7856 148.2 78.0409 155.8 81.3416V95.2122C141.363 103.121 127.375 108.947 126.907 109.141C126.241 109.413 125.678 109.913 125.333 110.57L114.71 130.805H102.518V119.471C102.518 118.546 102.103 117.667 101.388 117.079C100.673 116.49 99.7293 116.251 98.8221 116.431C88.6364 118.422 77.6689 118.422 67.4832 116.431C66.576 116.253 65.6323 116.492 64.9175 117.081C64.2027 117.669 63.7876 118.546 63.7876 119.473V130.807H51.595L36.6404 102.322C36.4683 101.996 36.2415 101.704 35.9681 101.457C27.1351 93.5183 22.271 83.5171 22.271 73.2993C22.271 55.6788 36.5088 39.6569 58.5448 32.4828C60.1729 31.9526 61.0619 30.2041 60.5314 28.5771C60.0008 26.95 58.2512 26.0636 56.6251 26.5918C33.283 34.1909 17.7755 51.0525 16.2122 70.114C10.5827 69.4421 6.1986 64.6479 6.1986 58.8439C6.1986 57.1338 4.81147 55.7455 3.09832 55.7455C1.38517 55.7455 -0.00195312 57.1318 -0.00195312 58.8439C-0.00195312 68.066 7.15237 75.6448 16.2061 76.341C17.0546 87.087 22.3621 97.3938 31.4038 105.685L46.974 135.345C47.5086 136.365 48.5677 137.004 49.7199 137.004H66.8878C68.599 137.004 69.9881 135.618 69.9881 133.906V123.152C78.6308 124.451 87.6785 124.451 96.3172 123.152V133.906C96.3172 135.616 97.7043 137.004 99.4174 137.004H116.585C117.738 137.004 118.795 136.365 119.331 135.345L130.307 114.438C131.789 113.839 134.367 112.705 139.014 110.558C144.336 108.101 152.369 104.23 160.41 99.7453C161.393 99.1989 162 98.1628 162 97.0396V79.2045C162 77.8628 161.135 76.6729 159.858 76.258V76.256Z" fill="#494949"/>
</g>
<defs>
<clipPath id="clip0_381_129">
<rect width="162" height="137" fill="white"/>
</clipPath>
</defs>
</svg>
