<svg width="95" height="95" viewBox="0 0 95 95" fill="none" xmlns="http://www.w3.org/2000/svg">
<g clip-path="url(#clip0_368_470)" filter="url(#filter0_d_368_470)">
<path d="M47.5001 64.8742C59.3047 64.8742 68.8742 55.3047 68.8742 43.5001C68.8742 31.6955 59.3047 22.126 47.5001 22.126C35.6955 22.126 26.126 31.6955 26.126 43.5001C26.126 55.3047 35.6955 64.8742 47.5001 64.8742Z" stroke="white" stroke-width="5" stroke-miterlimit="10"/>
<path d="M47.5 2.46228V13.1321" stroke="white" stroke-width="5" stroke-miterlimit="10" stroke-linecap="round"/>
<path d="M47.5 84.5377V73.8679" stroke="white" stroke-width="5" stroke-miterlimit="10" stroke-linecap="round"/>
<path d="M76.5187 14.4814L68.9727 22.0275" stroke="white" stroke-width="5" stroke-miterlimit="10" stroke-linecap="round"/>
<path d="M18.4814 72.5187L26.0275 64.9727" stroke="white" stroke-width="5" stroke-miterlimit="10" stroke-linecap="round"/>
<path d="M88.537 43.5H77.8672" stroke="white" stroke-width="5" stroke-miterlimit="10" stroke-linecap="round"/>
<path d="M6.46191 43.5H17.1317" stroke="white" stroke-width="5" stroke-miterlimit="10" stroke-linecap="round"/>
<path d="M76.5187 72.5187L68.9727 64.9727" stroke="white" stroke-width="5" stroke-miterlimit="10" stroke-linecap="round"/>
<path d="M18.4814 14.4814L26.0275 22.0275" stroke="white" stroke-width="5" stroke-miterlimit="10" stroke-linecap="round"/>
</g>
<defs>
<filter id="filter0_d_368_470" x="0" y="0" width="95" height="95" filterUnits="userSpaceOnUse" color-interpolation-filters="sRGB">
<feFlood flood-opacity="0" result="BackgroundImageFix"/>
<feColorMatrix in="SourceAlpha" type="matrix" values="0 0 0 0 0 0 0 0 0 0 0 0 0 0 0 0 0 0 127 0" result="hardAlpha"/>
<feOffset dy="4"/>
<feGaussianBlur stdDeviation="2"/>
<feComposite in2="hardAlpha" operator="out"/>
<feColorMatrix type="matrix" values="0 0 0 0 0 0 0 0 0 0 0 0 0 0 0 0 0 0 0.25 0"/>
<feBlend mode="normal" in2="BackgroundImageFix" result="effect1_dropShadow_368_470"/>
<feBlend mode="normal" in="SourceGraphic" in2="effect1_dropShadow_368_470" result="shape"/>
</filter>
<clipPath id="clip0_368_470">
<rect width="87" height="87" fill="white" transform="translate(4)"/>
</clipPath>
</defs>
</svg>
