<svg width="103" height="80" viewBox="0 0 103 80" fill="none" xmlns="http://www.w3.org/2000/svg">
<g clip-path="url(#clip0_482_241)">
<path d="M63.8234 31.0204H57.2939" stroke="white" stroke-width="3" stroke-miterlimit="10"/>
<path d="M37.7051 39.1837V44.0817" stroke="white" stroke-width="3" stroke-miterlimit="10"/>
<path d="M18.1172 40.8164H24.6466V27.7551H21.3819L18.1172 34.2857V40.8164Z" stroke="white" stroke-width="3" stroke-miterlimit="10"/>
<path d="M11.5879 42.449V34.2858" stroke="white" stroke-width="3" stroke-miterlimit="10"/>
<path d="M80.1468 70.2041H67.0879V76.7347H80.1468V70.2041Z" stroke="white" stroke-width="3" stroke-miterlimit="10"/>
<path d="M93.2063 37.5511H101.368V34.2858L96.471 29.3878L86.6768 11.4286V4.898L83.4121 1.63269H80.1474L73.618 14.6939H70.3532L57.2943 8.1633H54.0296L44.2354 21.2245L40.9707 24.4898L36.0736 27.7551V34.2858H40.9707L44.2354 37.5511H47.5002V31.0204L54.0296 21.2245H57.2943V31.0204V34.2858L54.0296 37.5511L50.7649 44.0817H37.706H34.4413L24.6471 47.347H18.1176V50.6123L21.3824 53.8776V57.1429L18.1176 60.4082H14.8529L11.5882 57.1429H8.32347L1.79402 63.6735L1.65527 69.6715L8.32347 73.4694H14.8529L24.6471 63.6735H32.2498L44.4925 75.9184L49.1101 71.3L43.7335 65.9245L44.2354 63.6735H54.0296V76.7347H60.5591V70.2041H67.0885V66.9388L63.8238 63.6735V60.4082L70.3532 57.1429H76.8827L93.2063 66.9388H96.471L99.7357 63.6735V60.4082L89.9416 53.8776V47.347L86.6768 44.0817V40.8164L93.2063 37.5511Z" stroke="white" stroke-width="3" stroke-miterlimit="10"/>
<path d="M31.1758 70.2041V73.4694" stroke="white" stroke-width="3" stroke-miterlimit="10"/>
<path d="M37.7051 76.7347V80" stroke="white" stroke-width="3" stroke-miterlimit="10"/>
<path d="M21.382 8.16321H14.8525V14.6938H21.382V8.16321Z" stroke="white" stroke-width="3" stroke-miterlimit="10"/>
<path d="M67.0879 1.63269V4.898" stroke="white" stroke-width="3" stroke-miterlimit="10"/>
</g>
<defs>
<clipPath id="clip0_482_241">
<rect width="103" height="80" fill="white"/>
</clipPath>
</defs>
</svg>
