<svg width="90" height="91" viewBox="0 0 90 91" fill="none" xmlns="http://www.w3.org/2000/svg">
<g clip-path="url(#clip0_385_367)">
<path d="M66.3905 24.629C73.1631 24.629 78.6736 19.1043 78.6736 12.3145C78.6736 5.52462 73.1631 0 66.3905 0C59.618 0 54.1074 5.52462 54.1074 12.3145C54.1074 19.1043 59.618 24.629 66.3905 24.629ZM66.3905 2.97318C71.5285 2.97318 75.708 7.16334 75.708 12.3145C75.708 17.4656 71.5285 21.6558 66.3905 21.6558C61.2525 21.6558 57.073 17.4656 57.073 12.3145C57.073 7.16334 61.2525 2.97318 66.3905 2.97318Z" fill="#494949"/>
<path d="M26.5468 24.629C33.3193 24.629 38.8299 19.1043 38.8299 12.3145C38.8299 5.52462 33.3193 0 26.5468 0C19.7742 0 14.2637 5.52462 14.2637 12.3145C14.2637 19.1043 19.7742 24.629 26.5468 24.629ZM26.5468 2.97318C31.6848 2.97318 35.8643 7.16334 35.8643 12.3145C35.8643 17.4656 31.6848 21.6558 26.5468 21.6558C21.4088 21.6558 17.2293 17.4656 17.2293 12.3145C17.2293 7.16334 21.4088 2.97318 26.5468 2.97318Z" fill="#494949"/>
<path d="M89.8082 53.3599L84.8606 34.2955C83.4416 28.6533 78.6448 25.1472 72.3431 25.1472H60.4409C53.5867 25.1472 49.4952 28.1204 47.9381 34.2388C46.4835 28.5212 42.9884 25.5501 37.256 25.1514C37.2225 25.1493 37.187 25.1472 37.1535 25.1472H15.9442C15.9108 25.1472 15.8752 25.1472 15.8417 25.1514C10.0905 25.5522 6.58908 28.5421 5.145 34.285L0.193251 53.3599C-0.547627 56.2093 0.898551 59.0188 3.5586 59.8959C4.90432 60.3386 6.33794 60.2274 7.59785 59.5791C8.84102 58.9412 9.75561 57.8585 10.1721 56.5325L11.8066 51.3373L12.3759 85.8216C12.424 88.6772 14.7513 91.0021 17.5683 91.0021H18.9203C21.6599 91.0021 23.8825 88.8241 24.1065 85.9328L25.7264 71.1067H27.9553L29.5752 85.9328C29.7991 88.8241 32.0238 91 34.7592 91H36.1112C37.3753 91 38.5682 90.5426 39.5017 89.7222C40.1274 90.5006 41.0797 91 42.1387 91H42.8377C44.6355 91 46.0942 89.5816 46.2324 87.7016L46.7388 80.7292H47.9967L48.5031 87.7016C48.6392 89.5816 50.0979 91 51.8978 91H52.5968C54.4385 91 55.9622 89.483 55.9935 87.6197L56.1463 78.9394H57.3037L58.7059 86.065C59.1998 88.9353 61.1755 90.8888 63.6598 90.9958C63.6974 90.9979 63.7372 91 63.777 91H69.005C69.0447 91 69.0824 91 69.1201 90.9958C71.5792 90.893 73.5109 88.9857 74.0739 86.0775L75.4552 78.9394H78.7201C80.0805 78.9394 80.9092 78.3225 81.3655 77.8043C82.0771 76.9964 82.4119 75.8004 82.2633 74.6045C81.6125 69.3904 80.949 63.7776 80.3065 58.3495C80.2688 58.0348 80.2333 57.7221 80.1956 57.4074C80.6853 58.3327 81.4471 59.0881 82.4036 59.5791C83.6635 60.2274 85.0992 60.3386 86.4449 59.8959C89.1029 59.0188 90.549 56.2093 89.8103 53.3599H89.8082ZM54.4574 45.4685C54.4574 49.3817 51.2825 52.5647 47.3793 52.5647C43.476 52.5647 40.3012 49.3817 40.3012 45.4685C40.3012 41.5553 43.476 38.3723 47.3793 38.3723C51.2825 38.3723 54.4574 41.5553 54.4574 45.4685ZM56.1045 65.4268C55.7361 64.8981 55.0706 64.6652 54.4553 64.854C53.84 65.0408 53.4151 65.6052 53.4047 66.2514L53.0321 87.5694C53.0279 87.8233 52.8333 88.0289 52.601 88.0289H51.902C51.6445 88.0289 51.4855 87.7498 51.4667 87.4876L50.8597 79.1366C50.8032 78.3603 50.1586 77.7581 49.3801 77.7581H45.3638C44.5874 77.7581 43.9407 78.3603 43.8842 79.1366L43.2772 87.4876C43.2584 87.7498 43.0993 88.0289 42.8419 88.0289H42.1429C41.9085 88.0289 41.7159 87.8233 41.7118 87.5694L41.3392 66.2514C41.3288 65.6073 40.9039 65.0429 40.2886 64.854C39.6733 64.6673 39.0078 64.8981 38.6394 65.4268L35.6508 69.7345C35.3996 70.0975 35.0522 70.4626 34.8869 70.4101C34.6462 70.3304 34.5688 70.0618 34.6085 69.8142L37.8462 61.7486C37.8713 61.6857 37.8923 61.6227 37.909 61.5577C38.4113 59.5644 39.4117 58.6852 41.3581 58.5384H53.3879C55.3343 58.6852 56.3368 59.5644 56.837 61.5577C56.8537 61.6227 56.8746 61.6878 56.8998 61.7486L60.1814 69.9254C60.2065 69.9884 60.2002 70.0597 60.1626 70.1394C60.1061 70.2632 59.9889 70.366 59.8591 70.408C59.5326 70.515 59.1831 69.8772 59.1789 69.8709C59.1538 69.8226 59.1245 69.7785 59.0952 69.7324L56.1066 65.4247L56.1045 65.4268ZM64.9092 88.0268H63.8753C62.5275 88.0268 61.8222 86.6902 61.6297 85.5467C61.6276 85.5341 61.6255 85.5215 61.6234 85.5089L60.3321 78.9415H64.9113V88.0268H64.9092ZM71.1627 85.5131C71.0811 85.9328 70.5914 88.0268 68.9108 88.0268H67.8769V78.9415H72.4373L71.1648 85.5131H71.1627ZM85.5178 57.0717C84.9318 57.2647 84.306 57.2165 83.7556 56.9332C83.224 56.6604 82.8347 56.2009 82.6568 55.6386L78.2764 41.719C78.0462 40.9846 77.2949 40.5503 76.5456 40.7139C75.7963 40.8776 75.2962 41.5889 75.3903 42.3506C76.0475 47.6024 76.713 53.2445 77.3597 58.6999C78.0023 64.1322 78.6657 69.7513 79.3187 74.9738C79.3605 75.3095 79.2852 75.6725 79.1408 75.8361C79.1094 75.8718 79.0257 75.9662 78.7201 75.9662H56.2007L56.2886 70.9011L56.6151 71.3711C57.5423 73.0056 59.2061 73.7526 60.7841 73.2343C61.6945 72.9343 62.448 72.2628 62.8519 71.3942C63.237 70.5633 63.2663 69.6464 62.9314 68.8155L59.6854 60.7289C58.8461 57.527 56.7805 55.7918 53.5407 55.5673C53.5072 55.5652 53.4716 55.5631 53.4381 55.5631H41.3015C41.2681 55.5631 41.2325 55.5631 41.199 55.5673C37.9592 55.7918 35.8936 57.527 35.0543 60.7289L31.8083 68.8155C31.7852 68.8742 31.7643 68.9351 31.7497 68.9959C31.2704 70.8402 32.2206 72.6636 33.9576 73.2343C34.8325 73.5239 36.5319 73.6707 38.0848 71.4319L38.4531 70.9011L38.7273 86.6126C38.3945 86.6818 38.0827 86.8665 37.8567 87.1581C37.4297 87.71 36.7956 88.0268 36.1154 88.0268H34.7634C33.5893 88.0268 32.6328 87.0218 32.5345 85.6873C32.5345 85.6705 32.5324 85.6516 32.5303 85.6348L30.7618 69.4575C30.6802 68.7043 30.044 68.1314 29.2884 68.1314H24.3995C23.6439 68.1314 23.0077 68.7022 22.9261 69.4554L21.1576 85.6327C21.1576 85.6516 21.1534 85.6684 21.1534 85.6873C21.0571 87.0197 20.0986 88.0247 18.9245 88.0247H17.5725C16.3649 88.0247 15.3666 87.0134 15.3457 85.7691L14.6236 42.1365C14.6111 41.4085 14.0732 40.7937 13.3554 40.6888C12.6354 40.5839 11.9468 41.0182 11.7271 41.7127L7.34671 55.6323C7.16881 56.1946 6.77954 56.6563 6.24795 56.929C5.69961 57.2123 5.07384 57.2605 4.48784 57.0675C3.33675 56.6877 2.72563 55.4141 3.06677 54.1048L8.02061 35.0194C9.1403 30.569 11.6015 28.4372 15.9987 28.1183H37.1032C41.4732 28.4372 43.9323 30.5438 45.0583 34.9417L45.1545 35.6467C40.6862 36.6665 37.3397 40.6825 37.3397 45.4664C37.3397 51.0183 41.8457 55.5358 47.3834 55.5358C52.9212 55.5358 57.4272 51.0183 57.4272 45.4664C57.4272 41.0727 54.606 37.3274 50.6839 35.9552L50.822 34.9417C52.0506 30.162 54.9325 28.1204 60.443 28.1204H72.3452C77.2216 28.1204 80.9155 30.7642 81.9892 35.032L86.9388 54.1069C87.2779 55.4162 86.6688 56.6898 85.5178 57.0696V57.0717Z" fill="#494949"/>
</g>
<defs>
<clipPath id="clip0_385_367">
<rect width="90" height="91" fill="white"/>
</clipPath>
</defs>
</svg>
