<svg width="62" height="69" viewBox="0 0 62 69" fill="none" xmlns="http://www.w3.org/2000/svg">
<g clip-path="url(#clip0_363_209)">
<path d="M17.7086 68.9999H7.09531C6.50516 68.9999 5.99902 68.5836 5.88722 68.0067L1.61522 45.9574C1.54543 45.5985 1.64029 45.2273 1.87337 44.9446C2.1078 44.6619 2.45539 44.4993 2.82263 44.4993H10.9527C11.4933 44.4993 11.9717 44.8515 12.1296 45.367L18.8848 67.4163C18.9993 67.7887 18.9296 68.1922 18.6971 68.5033C18.4654 68.8157 18.0989 68.9999 17.7079 68.9999H17.7086ZM8.11097 66.5485H16.0465L10.0427 46.9507H4.31393L8.11097 66.5485Z" fill="#494949"/>
<path d="M44.0729 52.4184H33.3824C32.7021 52.4184 32.1513 51.8704 32.1513 51.1923C32.1513 50.5142 32.7015 49.9663 33.3824 49.9663H42.6257C42.4644 49.5196 42.2171 49.1437 41.8756 48.8313C40.0435 47.1471 35.8778 47.3792 33.1202 47.5263C29.8198 47.7085 28.8157 47.2618 27.8122 46.4609C27.2376 46.0047 26.6956 45.5729 24.3878 45.5729C20.0352 45.5729 17.4381 47.2652 16.5891 48.2652C15.4664 49.5857 12.8869 50.3516 12.3808 50.4919C11.7222 50.6667 11.048 50.2895 10.8664 49.6397C10.6835 48.9885 11.067 48.3124 11.7208 48.1302C12.6776 47.863 14.238 47.2382 14.7089 46.6815C15.2137 46.0877 18.0526 43.1215 24.3871 43.1215C27.3203 43.1215 28.3691 43.7665 29.3489 44.5472C29.8367 44.9352 30.1064 45.1491 31.2264 45.1491C31.7081 45.1491 32.3085 45.1154 32.9847 45.0783C36.1529 44.9001 40.9467 44.641 43.5431 47.0283C44.6658 48.0587 45.2573 49.4487 45.3027 51.1592C45.3101 51.4899 45.1848 51.8104 44.9544 52.0472C44.7213 52.2827 44.4042 52.417 44.0722 52.417L44.0729 52.4184Z" fill="#494949"/>
<path d="M16.0116 63.4554C15.6593 63.4554 15.311 63.307 15.0671 63.0175C14.6308 62.4993 14.6992 61.726 15.2195 61.2901C16.9243 59.8684 21.1035 56.558 23.1165 56.558C23.8747 56.558 25.2379 56.8239 27.5809 57.2942C30.7085 57.9217 34.9934 58.7807 37.8805 58.7807C40.7676 58.7807 50.8307 51.7051 57.1936 46.6478C56.4917 46.28 55.4869 46.0182 54.2923 46.498C51.2873 47.7119 44.7584 51.7469 44.6906 51.7874C44.1208 52.143 43.3565 51.9716 42.9961 51.3934C42.6376 50.8178 42.8158 50.0621 43.3924 49.7044C43.6662 49.5344 50.1667 45.5182 53.3688 44.2253C57.2804 42.6417 59.9919 45.695 60.1071 45.8259C60.326 46.0762 60.4317 46.4042 60.4025 46.7341C60.3734 47.0648 60.2128 47.3684 59.9554 47.5783C58.2344 48.9764 43.0049 61.2314 37.8798 61.2314C34.7475 61.2314 30.323 60.3441 27.0931 59.6957C25.3308 59.3428 23.666 59.0088 23.1158 59.0088C22.3624 59.0459 19.4102 60.9885 16.8003 63.1687C16.5692 63.3603 16.2894 63.4548 16.0103 63.4548L16.0116 63.4554Z" fill="#494949"/>
<path d="M42.6955 48.9966C42.3086 48.9966 41.9265 48.8144 41.688 48.4736C41.2964 47.9196 41.4332 47.1558 41.9881 46.7665C42.8561 46.1605 47.2914 43.1302 49.3661 42.919C51.7341 42.6713 53.693 44.6632 53.905 44.892C54.3665 45.3886 54.3353 46.1646 53.838 46.6241C53.3406 47.0823 52.5662 47.056 52.1021 46.562C51.7538 46.1936 50.6426 45.2321 49.6161 45.3589C48.6641 45.4547 45.6497 47.2071 43.4022 48.7752C43.1861 48.925 42.9408 48.9966 42.6955 48.9966Z" fill="#494949"/>
<path d="M54.8307 31.604C54.1504 31.604 53.5996 31.056 53.5996 30.3779C53.5996 17.967 43.4599 7.87048 30.9989 7.87048C18.5379 7.87048 8.39828 17.967 8.39828 30.3779C8.39828 31.0554 7.84811 31.604 7.16716 31.604C6.48621 31.604 5.93604 31.056 5.93604 30.3779C5.93604 16.6161 17.1794 5.41907 30.9983 5.41907C44.8171 5.41907 56.0605 16.6161 56.0605 30.3779C56.0605 31.0554 55.5103 31.604 54.8293 31.604H54.8307Z" fill="#494949"/>
<path d="M30.9992 7.87045C30.3189 7.87045 29.7681 7.32254 29.7681 6.6444V1.22605C29.7681 0.548583 30.3182 0 30.9992 0C31.6801 0 32.2303 0.547908 32.2303 1.22605V6.64507C32.2303 7.32254 31.6801 7.87112 30.9992 7.87112V7.87045Z" fill="#494949"/>
<path d="M54.831 38.2126H7.16746C1.75986 38.2126 0.115426 33.1215 0.0015962 30.4292C-0.0126325 30.0952 0.110683 29.7706 0.343086 29.529C0.574811 29.2882 0.895974 29.1519 1.23137 29.1519H60.7691C61.1059 29.1519 61.4257 29.2882 61.6588 29.529C61.8898 29.7706 62.0124 30.0965 62.0002 30.4292C61.8851 33.1215 60.2379 38.2119 54.8317 38.2119L54.831 38.2126ZM2.65288 31.6039C3.02419 33.2139 4.09744 35.7612 7.16746 35.7612H54.831C57.9247 35.7612 58.9898 33.2126 59.353 31.6039H2.65288Z" fill="#494949"/>
</g>
<defs>
<clipPath id="clip0_363_209">
<rect width="62" height="69" fill="white"/>
</clipPath>
</defs>
</svg>
