<svg width="83" height="91" viewBox="0 0 83 91" fill="none" xmlns="http://www.w3.org/2000/svg">
<g clip-path="url(#clip0_385_371)">
<path d="M82.9694 48.0523C82.9579 43.1781 79.1935 41.8562 76.1679 40.7953C74.8665 40.3382 73.5269 39.8696 72.4609 39.1629V38.662C74.5622 37.0696 75.921 34.5554 75.921 31.7307V29.4927C75.921 25.7156 73.4924 22.4928 70.1089 21.2909C69.1979 18.7196 66.7253 17.8529 64.5245 17.0796C63.4145 16.691 62.3562 16.3196 61.495 15.7672V15.5482C63.294 14.152 64.4518 11.9749 64.4518 9.53499V7.62455C64.4518 3.42083 61.0147 -4.8403e-05 56.791 -4.8403e-05C52.5673 -4.8403e-05 49.1302 3.42083 49.1302 7.62455V9.53499C49.1302 11.973 50.2861 14.1482 52.0812 15.5444V15.7672C51.22 16.3177 50.1617 16.6891 49.0517 17.0796C48.5982 17.2377 48.135 17.4015 47.6815 17.5786C45.9552 16.2987 43.8157 15.5387 41.5 15.5387C39.1843 15.5387 37.0448 16.2987 35.3166 17.5786C34.8611 17.3996 34.398 17.2377 33.9445 17.0777C32.8345 16.6891 31.7762 16.3177 30.915 15.7653V15.5463C32.712 14.1501 33.8717 11.973 33.8717 9.53308V7.62265C33.8717 3.41893 30.4346 -0.00195312 26.2109 -0.00195312C21.9872 -0.00195312 18.5501 3.41893 18.5501 7.62265V9.53308C18.5501 11.9711 19.706 14.1463 21.5012 15.5425V15.7653C20.64 16.3158 19.5816 16.6872 18.4717 17.0777C16.2727 17.8491 13.8002 18.7157 12.8873 21.289C9.50567 22.4928 7.07902 25.7156 7.07902 29.4889V31.7269C7.07902 34.5516 8.43779 37.0677 10.5391 38.6582V39.1591C9.47314 39.8658 8.1335 40.3343 6.83214 40.7915C3.80839 41.8562 0.0421028 43.1762 0.0306202 48.0523L0 61.3987C0 61.4615 0.00382753 61.5244 0.0133964 61.5853C0.329168 63.8672 2.22954 65.4672 4.43611 65.3034C4.7959 65.2767 5.14037 65.2062 5.46571 65.0957L5.06765 79.0535C5.06765 79.0745 5.06765 79.0935 5.06765 79.1145C5.10593 81.3544 6.94697 83.1792 9.17268 83.1792H10.1755C12.3266 83.1792 14.0911 81.4706 14.2767 79.204L15.046 69.8575H16.6096L17.377 79.1926C17.5435 81.4668 19.3061 83.1811 21.4801 83.1811H22.4829C24.7067 83.1811 26.5478 81.3583 26.5879 79.1183C26.5879 79.0973 26.5879 79.0764 26.5879 79.0554L26.3047 69.1318C26.7181 69.2176 27.1506 69.2461 27.5946 69.2137C28.1611 69.1718 28.6931 69.0347 29.1811 68.8157L28.6835 86.2781C28.6835 86.2991 28.6835 86.3181 28.6835 86.3391C28.7256 88.9105 30.8384 91.0019 33.3914 91.0019H34.6143C37.0811 91.0019 39.1021 89.0343 39.3164 86.4267L40.2752 74.7622H42.7286L43.6874 86.4134C43.8788 89.0286 45.8997 91 48.3915 91H49.6144C52.1635 91 54.2763 88.9086 54.3222 86.3391C54.3222 86.3181 54.3222 86.2972 54.3222 86.2762L53.8246 68.8118C54.3127 69.0328 54.8485 69.1699 55.415 69.2118C55.859 69.2442 56.2915 69.2156 56.7049 69.1299L56.4216 79.0535C56.4216 79.0745 56.4216 79.0954 56.4216 79.1164C56.4618 81.3563 58.3029 83.1792 60.5266 83.1792H61.5295C63.7016 83.1792 65.4661 81.4649 65.6307 79.204L66.4 69.8575H67.9635L68.7329 79.204C68.9185 81.4706 70.683 83.1792 72.8341 83.1792H73.8369C76.0626 83.1792 77.9056 81.3563 77.9419 79.1145C77.9419 79.0935 77.9419 79.0745 77.9419 79.0535L77.5439 65.0957C77.8692 65.2062 78.2137 65.2767 78.5735 65.3034C80.7781 65.4633 82.6804 63.8672 82.9962 61.5853C83.0038 61.5225 83.0096 61.4615 83.0096 61.3987L82.9789 48.0523H82.9694ZM73.2092 29.4927V31.7307C73.2092 35.043 70.5012 37.7382 67.1732 37.7382C63.8451 37.7382 61.1371 35.043 61.1371 31.7307V29.4927C61.1371 26.1804 63.8451 23.4852 67.1732 23.4852C70.5012 23.4852 73.2092 26.1804 73.2092 29.4927ZM51.842 9.53499V7.62455C51.842 4.90842 54.062 2.69894 56.791 2.69894C59.52 2.69894 61.74 4.90842 61.74 7.62455V9.53499C61.74 12.2511 59.52 14.4606 56.791 14.4606C54.062 14.4606 51.842 12.2511 51.842 9.53499ZM33.8469 25.8566C33.8469 23.6871 34.7616 21.7271 36.2295 20.3386C36.4017 20.2452 36.5529 20.1138 36.6716 19.95C37.9902 18.8815 39.6704 18.2396 41.5 18.2396C45.7199 18.2396 49.1531 21.6566 49.1531 25.8566V28.586C49.1531 32.7859 45.7199 36.203 41.5 36.203C37.2801 36.203 33.8469 32.7859 33.8469 28.586V25.8566ZM21.2619 9.53499V7.62455C21.2619 4.90842 23.4819 2.69894 26.2109 2.69894C28.94 2.69894 31.1599 4.90842 31.1599 7.62455V9.53499C31.1599 12.2511 28.94 14.4606 26.2109 14.4606C23.4819 14.4606 21.2619 12.2511 21.2619 9.53499ZM9.79274 31.7307V29.4927C9.79274 26.1804 12.5007 23.4852 15.8288 23.4852C19.1568 23.4852 21.8648 26.1804 21.8648 29.4927V31.7307C21.8648 35.043 19.1568 37.7382 15.8288 37.7382C12.5007 37.7382 9.79274 35.043 9.79274 31.7307ZM22.5174 64.9338C22.6475 65.8729 23.0111 66.7128 23.5393 67.3947L23.8723 79.0935C23.8455 79.8592 23.2255 80.4783 22.4791 80.4783H21.4763C20.6304 80.4783 20.1328 79.7316 20.0792 78.9812L19.2085 68.3947C19.151 67.6938 18.5635 67.1547 17.8573 67.1547H13.7944C13.0882 67.1547 12.5007 67.6938 12.4433 68.3947L11.5725 78.9812C11.5113 79.724 11.0118 80.4783 10.1755 80.4783H9.17268C8.42631 80.4783 7.80625 79.8592 7.77946 79.0954L8.56984 51.4179C8.59089 50.6732 8.00145 50.0522 7.25317 50.0294C6.50872 50.0046 5.881 50.5951 5.85804 51.3398L5.59202 60.652C5.5614 60.7682 5.54609 60.8901 5.54992 61.0158C5.56523 61.8691 5.00067 62.5548 4.23708 62.6101C3.39311 62.671 2.84577 62.0082 2.71372 61.2958L2.74434 48.0561C2.75008 45.22 4.45907 44.4885 7.73544 43.34C9.46931 42.7324 11.2625 42.1038 12.7572 40.8867C13.0193 40.6734 13.1878 40.3743 13.2394 40.0467C14.0585 40.3001 14.9293 40.4372 15.8307 40.4372C16.732 40.4372 17.599 40.302 18.4162 40.0486C18.4678 40.3762 18.6362 40.6753 18.8984 40.8867C20.3931 42.1038 22.1863 42.7324 23.9202 43.34C24.0273 43.3781 24.1326 43.4143 24.2378 43.4505C23.2121 44.6409 22.5537 46.2352 22.548 48.477L22.5097 64.7453C22.5097 64.8081 22.5135 64.871 22.5231 64.9319L22.5174 64.9338ZM21.1107 39.1629V38.6658C23.2159 37.0735 24.5766 34.5573 24.5766 31.7307V29.4927C24.5766 24.9537 21.0667 21.2128 16.6077 20.8205C17.289 20.3767 18.219 20.0319 19.375 19.6262C20.8007 19.1272 22.4159 18.5596 23.7173 17.4986C23.9182 17.3348 24.0656 17.1177 24.146 16.8777C24.8024 17.0605 25.4952 17.1596 26.2109 17.1596C26.9267 17.1596 27.6156 17.0625 28.2721 16.8796C28.3524 17.1196 28.4998 17.3348 28.7007 17.4986C30.0021 18.5577 31.6173 19.1253 33.0431 19.6262C33.0967 19.6453 33.1483 19.6624 33.2 19.6814C31.9025 21.4033 31.1331 23.5423 31.1331 25.8566V28.586C31.1331 31.9859 32.7943 35.0068 35.3511 36.8887V37.803C34 38.7344 32.291 39.3344 30.6336 39.9153C29.3323 40.3724 27.9697 40.8486 26.743 41.5134C26.1114 41.2524 25.455 41.0239 24.8158 40.7991C23.5144 40.342 22.1748 39.8734 21.1088 39.1668L21.1107 39.1629ZM55.6083 66.5205C54.5174 66.4405 53.7117 65.4748 53.7328 64.2767C53.7347 64.1339 53.7156 63.9948 53.6773 63.8653L53.3519 52.496C53.3309 51.7512 52.6994 51.1627 51.9568 51.1856C51.2085 51.2065 50.6191 51.8274 50.6401 52.5741L51.6028 86.3201C51.5683 87.4153 50.6784 88.301 49.6086 88.301H48.3857C47.3332 88.301 46.4739 87.4057 46.3858 86.2058L45.3237 73.3013C45.2663 72.6003 44.6788 72.0613 43.9726 72.0613H39.0198C38.3136 72.0613 37.7261 72.6003 37.6686 73.3013L36.6065 86.2058C36.5204 87.2477 35.8065 88.301 34.6066 88.301H33.3837C32.3101 88.301 31.4221 87.4153 31.3896 86.3201L32.3522 52.5741C32.3733 51.8293 31.7838 51.2084 31.0355 51.1856C30.2872 51.1646 29.6634 51.7512 29.6404 52.496L29.3151 63.8824C29.2787 64.0081 29.2615 64.1396 29.2634 64.2767C29.2844 65.4767 28.4787 66.4405 27.3879 66.5205C26.3296 66.6005 25.4091 65.7986 25.2139 64.65L25.2521 48.4866C25.2598 44.8371 27.5276 43.8638 31.5331 42.46C33.6229 41.7267 35.7836 40.9686 37.5634 39.5191C37.8792 39.262 38.061 38.8791 38.061 38.4753V38.3211C39.1365 38.6982 40.2924 38.9039 41.4962 38.9039C42.6999 38.9039 43.852 38.7001 44.9256 38.323V38.4734C44.9256 38.8772 45.1074 39.262 45.4232 39.5172C47.2049 40.9667 49.3637 41.7248 51.4535 42.4581C55.459 43.8638 57.7249 44.8352 57.7345 48.4846L57.7785 64.6481C57.5814 65.7986 56.6589 66.5986 55.6044 66.5186L55.6083 66.5205ZM56.2513 41.5115C55.0246 40.8467 53.662 40.3705 52.3587 39.9134C50.7014 39.3325 48.9924 38.7325 47.6413 37.8011V36.8925C50.2019 35.0126 51.865 31.9879 51.865 28.586V25.8566C51.865 23.5423 51.0956 21.4033 49.7981 19.6795C49.8498 19.6624 49.9014 19.6434 49.9531 19.6262C51.3789 19.1272 52.9941 18.5596 54.2954 17.5005C54.4964 17.3367 54.6437 17.1196 54.7241 16.8796C55.3805 17.0625 56.0733 17.1615 56.7891 17.1615C57.5048 17.1615 58.1938 17.0644 58.8502 16.8815C58.9306 17.1215 59.0779 17.3367 59.2789 17.5005C60.5802 18.5596 62.1955 19.1272 63.6212 19.6281C64.8001 20.0414 65.7264 20.3843 66.3981 20.8224C61.9352 21.2128 58.4234 24.9537 58.4234 29.4946V31.7326C58.4234 34.5592 59.7841 37.0773 61.8893 38.6677V39.1648C60.8233 39.8715 59.4837 40.3401 58.1823 40.7972C57.5412 41.0219 56.8848 41.2524 56.2513 41.5134V41.5115ZM78.7648 62.612C78.0012 62.5567 77.4367 61.8691 77.452 61.0177C77.4539 60.892 77.4386 60.7701 77.4099 60.6539L77.1439 51.3417C77.1228 50.597 76.4932 50.0103 75.7487 50.0313C75.0005 50.0522 74.411 50.6732 74.4321 51.4198L75.2225 79.0973C75.1957 79.863 74.5775 80.4802 73.8292 80.4802H72.8264C71.9901 80.4802 71.4906 79.7278 71.4294 78.9831L70.5586 68.3966C70.5012 67.6957 69.9137 67.1566 69.2075 67.1566H65.1446C64.4384 67.1566 63.8509 67.6957 63.7934 68.3966L62.9227 78.9945C62.871 79.7145 62.3619 80.4783 61.5256 80.4783H60.5228C59.7765 80.4783 59.1583 79.8592 59.1296 79.0935L59.4626 67.3947C59.9908 66.7128 60.3544 65.8748 60.4845 64.9338C60.4922 64.871 60.4979 64.8081 60.4979 64.7453L60.4539 48.477C60.4482 46.2371 59.7899 44.6447 58.7641 43.4543C58.8712 43.4162 58.9784 43.3781 59.0875 43.34C60.8214 42.7324 62.6146 42.1019 64.1092 40.8867C64.3695 40.6753 64.5398 40.3743 64.5915 40.0486C65.4087 40.3001 66.2775 40.4372 67.177 40.4372C68.0765 40.4372 68.9491 40.3001 69.7682 40.0467C69.818 40.3743 69.9883 40.6734 70.2505 40.8867C71.7451 42.1038 73.5383 42.7324 75.2722 43.34C78.5467 44.4885 80.2557 45.22 80.2633 48.0561L80.2939 61.2958C80.1638 62.0082 79.6107 62.6729 78.7706 62.6101L78.7648 62.612Z" fill="#494949"/>
</g>
<defs>
<clipPath id="clip0_385_371">
<rect width="83" height="91" fill="white"/>
</clipPath>
</defs>
</svg>
