<svg width="86" height="86" viewBox="0 0 86 86" fill="none" xmlns="http://www.w3.org/2000/svg">
<g clip-path="url(#clip0_368_406)">
<path d="M43 2.43396V83.566" stroke="#494949" stroke-width="4" stroke-miterlimit="10" stroke-linecap="round"/>
<path d="M2.43359 43H83.5657" stroke="#494949" stroke-width="4" stroke-miterlimit="10" stroke-linecap="round"/>
<path d="M42.9999 57.3506L35.5195 64.8293" stroke="#494949" stroke-width="4" stroke-miterlimit="10" stroke-linecap="round"/>
<path d="M43 57.3506L50.4804 64.8293" stroke="#494949" stroke-width="4" stroke-miterlimit="10" stroke-linecap="round"/>
<path d="M42.9996 68.7042L33.5039 78.2015" stroke="#494949" stroke-width="4" stroke-miterlimit="10" stroke-linecap="round"/>
<path d="M43 68.7042L52.4957 78.2015" stroke="#494949" stroke-width="4" stroke-miterlimit="10" stroke-linecap="round"/>
<path d="M42.9999 28.6494L35.5195 21.1707" stroke="#494949" stroke-width="4" stroke-miterlimit="10" stroke-linecap="round"/>
<path d="M43 28.6494L50.4804 21.1707" stroke="#494949" stroke-width="4" stroke-miterlimit="10" stroke-linecap="round"/>
<path d="M42.9996 17.2958L33.5039 7.79846" stroke="#494949" stroke-width="4" stroke-miterlimit="10" stroke-linecap="round"/>
<path d="M43 17.2958L52.4957 7.79846" stroke="#494949" stroke-width="4" stroke-miterlimit="10" stroke-linecap="round"/>
<path d="M14.3145 14.3149L71.6846 71.6851" stroke="#494949" stroke-width="4" stroke-miterlimit="10" stroke-linecap="round"/>
<path d="M61.1748 61.1752V74.6058" stroke="#494949" stroke-width="4" stroke-miterlimit="10" stroke-linecap="round"/>
<path d="M61.1748 61.1752H74.6054" stroke="#494949" stroke-width="4" stroke-miterlimit="10" stroke-linecap="round"/>
<path d="M24.8242 24.8248H11.3936" stroke="#494949" stroke-width="4" stroke-miterlimit="10" stroke-linecap="round"/>
<path d="M24.8242 24.8248V11.3942" stroke="#494949" stroke-width="4" stroke-miterlimit="10" stroke-linecap="round"/>
<path d="M14.3145 71.6851L71.6846 14.3149" stroke="#494949" stroke-width="4" stroke-miterlimit="10" stroke-linecap="round"/>
<path d="M61.1748 24.8248V11.3942" stroke="#494949" stroke-width="4" stroke-miterlimit="10" stroke-linecap="round"/>
<path d="M61.1748 24.8248H74.6054" stroke="#494949" stroke-width="4" stroke-miterlimit="10" stroke-linecap="round"/>
<path d="M24.8242 61.1752H11.3936" stroke="#494949" stroke-width="4" stroke-miterlimit="10" stroke-linecap="round"/>
<path d="M24.8242 61.1752V74.6058" stroke="#494949" stroke-width="4" stroke-miterlimit="10" stroke-linecap="round"/>
<path d="M57.3506 43L64.8293 35.5197" stroke="#494949" stroke-width="4" stroke-miterlimit="10" stroke-linecap="round"/>
<path d="M57.3506 43L64.8293 50.4804" stroke="#494949" stroke-width="4" stroke-miterlimit="10" stroke-linecap="round"/>
<path d="M68.7041 43L78.2014 33.5043" stroke="#494949" stroke-width="4" stroke-miterlimit="10" stroke-linecap="round"/>
<path d="M68.7041 43L78.2014 52.4957" stroke="#494949" stroke-width="4" stroke-miterlimit="10" stroke-linecap="round"/>
<path d="M28.6487 43L21.1699 35.5197" stroke="#494949" stroke-width="4" stroke-miterlimit="10" stroke-linecap="round"/>
<path d="M28.6487 43L21.1699 50.4804" stroke="#494949" stroke-width="4" stroke-miterlimit="10" stroke-linecap="round"/>
<path d="M17.2952 43L7.79785 33.5043" stroke="#494949" stroke-width="4" stroke-miterlimit="10" stroke-linecap="round"/>
<path d="M17.2952 43L7.79785 52.4957" stroke="#494949" stroke-width="4" stroke-miterlimit="10" stroke-linecap="round"/>
</g>
<defs>
<clipPath id="clip0_368_406">
<rect width="86" height="86" fill="white"/>
</clipPath>
</defs>
</svg>
