<svg width="153" height="138" viewBox="0 0 153 138" fill="none" xmlns="http://www.w3.org/2000/svg">
<g clip-path="url(#clip0_381_117)">
<path d="M76.4991 138C75.7167 138 74.9743 137.65 74.4744 137.049L15.9065 66.5951C15.432 66.1164 15.1367 65.4599 15.1367 64.7356C15.1367 63.2721 16.3157 62.067 17.7751 62.067H135.312C136.769 62.067 137.95 63.253 137.95 64.7165V64.7356C137.95 65.4874 137.638 66.1651 137.138 66.6459L78.5259 137.053C78.0239 137.655 77.2816 138.002 76.5012 138.002L76.4991 138ZM23.4168 67.3639L76.5012 131.221L129.659 67.3639H23.4168Z" fill="white"/>
<path d="M56.9167 67.3724H17.733C16.767 67.3724 15.8791 66.8429 15.4172 65.9915C14.9554 65.1401 14.9912 64.1023 15.5143 63.2891L35.0945 32.749C36.0626 31.2347 38.5576 31.2347 39.5298 32.749L59.1333 63.2891C59.6564 64.1045 59.6922 65.1422 59.2304 65.9915C58.7685 66.8429 57.8806 67.3724 56.9146 67.3724H56.9167ZM22.5669 62.0734H52.0786L37.3154 39.0752L22.5669 62.0734Z" fill="white"/>
<path d="M96.0882 67.3639H56.9107C55.9448 67.3639 55.0569 66.8344 54.595 65.983C54.1331 65.1316 54.169 64.0939 54.692 63.2806L74.2807 32.7427C75.2551 31.2284 77.7438 31.2284 78.716 32.7427L98.3047 63.2806C98.8278 64.096 98.8636 65.1338 98.4018 65.983C97.9399 66.8344 97.052 67.3639 96.086 67.3639H96.0882ZM61.7488 62.0649H91.25L76.4994 39.0688L61.7488 62.0649Z" fill="white"/>
<path d="M135.265 67.3724H96.0816C95.1157 67.3724 94.2278 66.843 93.7659 65.9916C93.304 65.1402 93.3399 64.1045 93.8629 63.2891L113.464 32.7491C113.951 31.993 114.787 31.5355 115.683 31.5355C116.579 31.5355 117.417 31.993 117.902 32.7491L137.482 63.2891C138.005 64.1045 138.041 65.1423 137.579 65.9916C137.117 66.8409 136.229 67.3724 135.263 67.3724H135.265ZM100.92 62.0735H130.429L115.683 39.0752L100.92 62.0735Z" fill="white"/>
<path d="M135.265 67.3724H17.733C16.767 67.3724 15.8791 66.843 15.4172 65.9916C14.9554 65.1402 14.9912 64.1024 15.5143 63.2891L35.0945 32.7491C35.5817 31.993 36.4169 31.5355 37.3133 31.5355H115.685C116.581 31.5355 117.417 31.993 117.904 32.7491L137.484 63.2891C138.007 64.1045 138.043 65.1423 137.581 65.9916C137.119 66.8409 136.231 67.3724 135.265 67.3724ZM22.5669 62.0735H130.429L114.245 36.8324H38.7537L22.5669 62.0735Z" fill="white"/>
<path d="M76.4994 138C75.3141 138 74.2765 137.208 73.9601 136.062L54.3714 65.426C54.1499 64.6297 54.3123 63.7719 54.8122 63.1133C55.3099 62.4546 56.0881 62.067 56.9128 62.067H96.0902C96.9148 62.067 97.6931 62.4546 98.1887 63.1133C98.6885 63.7719 98.8509 64.6297 98.6295 65.426L79.0408 136.062C78.7244 137.208 77.6868 138 76.5015 138H76.4994ZM60.3821 67.3639L76.4994 125.477L92.6166 67.3639H60.3842H60.3821Z" fill="white"/>
<path d="M13.0149 41.2651C12.5361 41.2651 12.051 41.1338 11.6166 40.8606L1.23802 34.3333C0.00423422 33.556 -0.369065 31.921 0.402842 30.682C1.18108 29.4409 2.80925 29.0703 4.04093 29.8433L14.4195 36.3707C15.6533 37.1479 16.0266 38.783 15.2547 40.0219C14.7527 40.8246 13.8943 41.2651 13.017 41.2651H13.0149Z" fill="white"/>
<path d="M41.1052 19.6794C40.2195 19.6794 39.3526 19.2326 38.857 18.4193L32.4392 7.94418C31.6736 6.69886 32.0638 5.06596 33.3018 4.3014C34.5461 3.5326 36.1701 3.92018 36.9315 5.16974L43.3493 15.6449C44.1127 16.8902 43.7247 18.5231 42.4867 19.2876C42.0543 19.5545 41.5777 19.6816 41.1052 19.6816V19.6794Z" fill="white"/>
<path d="M76.5095 17.5976C75.0542 17.5976 73.8732 16.4137 73.8711 14.9502L73.8584 2.65161C73.8563 1.18814 75.0352 0.0021179 76.4947 0H76.4968C77.952 0 79.1331 1.1839 79.1352 2.64737L79.1479 14.946C79.15 16.4095 77.971 17.5955 76.5116 17.5976H76.5095Z" fill="white"/>
<path d="M139.985 41.2651C139.106 41.2651 138.25 40.8246 137.748 40.0219C136.976 38.7829 137.349 37.1479 138.583 36.3707L148.961 29.8433C150.193 29.0681 151.821 29.4388 152.599 30.682C153.371 31.921 152.998 33.556 151.764 34.3332L141.386 40.8606C140.951 41.1338 140.466 41.2651 139.987 41.2651H139.985Z" fill="white"/>
<path d="M111.895 19.6795C111.422 19.6795 110.946 19.5524 110.513 19.2855C109.273 18.5189 108.885 16.8881 109.651 15.6428L116.068 5.16765C116.828 3.92021 118.45 3.53052 119.698 4.29931C120.938 5.06599 121.324 6.69677 120.561 7.94209L114.143 18.4172C113.645 19.2305 112.78 19.6774 111.895 19.6774V19.6795Z" fill="white"/>
</g>
<defs>
<clipPath id="clip0_381_117">
<rect width="153" height="138" fill="white"/>
</clipPath>
</defs>
</svg>
