<svg width="137" height="137" viewBox="0 0 137 137" fill="none" xmlns="http://www.w3.org/2000/svg">
<g clip-path="url(#clip0_1051_160)">
<path d="M56.39 43.72H73.8301C75.2601 43.72 76.42 42.56 76.42 41.13C76.42 39.7 75.2601 38.54 73.8301 38.54H56.39C54.96 38.54 53.8 39.7 53.8 41.13C53.8 42.56 54.96 43.72 56.39 43.72Z" fill="#444242"/>
<path d="M113.45 41.13C113.45 42.56 114.61 43.72 116.04 43.72H133.48C134.91 43.72 136.07 42.56 136.07 41.13C136.07 39.7 134.91 38.54 133.48 38.54H116.04C114.61 38.54 113.45 39.7 113.45 41.13Z" fill="#444242"/>
<path d="M108.25 54.45C107.24 55.46 107.24 57.1 108.25 58.11L114.2 64.06C114.7 64.56 115.37 64.82 116.03 64.82C116.69 64.82 117.36 64.57 117.86 64.06C118.87 63.05 118.87 61.41 117.86 60.4L111.91 54.45C110.9 53.44 109.26 53.44 108.25 54.45Z" fill="#444242"/>
<path d="M92.3401 63.12V79.67C92.3401 81.1 93.5001 82.26 94.9301 82.26C96.3601 82.26 97.5201 81.1 97.5201 79.67V63.12C97.5201 61.69 96.3601 60.53 94.9301 60.53C93.5001 60.53 92.3401 61.69 92.3401 63.12Z" fill="#444242"/>
<path d="M77.9499 54.45L71.9999 60.4C70.9899 61.41 70.9899 63.05 71.9999 64.06C72.5099 64.56 73.1699 64.82 73.8299 64.82C74.4899 64.82 75.1599 64.57 75.6599 64.06L81.6099 58.11C82.6199 57.1 82.6199 55.46 81.6099 54.45C80.5999 53.44 78.9599 53.44 77.9499 54.45Z" fill="#444242"/>
<path d="M94.9299 57.9C104.18 57.9 111.7 50.37 111.7 41.12C111.7 31.87 104.17 24.35 94.9299 24.35C85.6899 24.35 78.1499 31.88 78.1499 41.12C78.1499 50.36 85.6799 57.9 94.9299 57.9ZM94.9299 29.53C101.32 29.53 106.53 34.73 106.53 41.13C106.53 47.53 101.33 52.73 94.9299 52.73C88.5299 52.73 83.3299 47.53 83.3299 41.13C83.3299 34.73 88.5299 29.53 94.9299 29.53Z" fill="#444242"/>
<path d="M77.9499 27.81C78.4599 28.32 79.1199 28.57 79.7799 28.57C80.4399 28.57 81.1099 28.32 81.6099 27.81C82.6199 26.8 82.6199 25.16 81.6099 24.15L75.6599 18.2C74.6499 17.19 73.0099 17.19 71.9999 18.2C70.9899 19.21 70.9899 20.85 71.9999 21.86L77.9499 27.81Z" fill="#444242"/>
<path d="M94.9301 21.73C96.3601 21.73 97.5201 20.57 97.5201 19.14V2.59C97.5201 1.16 96.3601 0 94.9301 0C93.5001 0 92.3401 1.16 92.3401 2.59V19.14C92.3401 20.57 93.5001 21.73 94.9301 21.73Z" fill="#444242"/>
<path d="M110.08 28.56C110.74 28.56 111.41 28.31 111.91 27.8L117.86 21.85C118.87 20.84 118.87 19.2 117.86 18.19C116.85 17.18 115.21 17.18 114.2 18.19L108.25 24.14C107.24 25.15 107.24 26.79 108.25 27.8C108.76 28.31 109.42 28.56 110.08 28.56Z" fill="#444242"/>
<path d="M133.47 99.4601C129.69 99.4601 127.94 98.0701 125.73 96.3201C123.21 94.3301 120.35 92.0601 114.77 92.0601C109.19 92.0601 106.34 94.3201 103.81 96.3201C101.59 98.0701 99.84 99.4601 96.07 99.4601C92.3 99.4601 90.54 98.0701 88.33 96.3201C85.81 94.3301 82.95 92.0601 77.38 92.0601C71.81 92.0601 68.95 94.3201 66.43 96.3201C64.21 98.0701 62.46 99.4601 58.69 99.4601C54.92 99.4601 53.16 98.0701 50.95 96.3201C48.43 94.3301 45.57 92.0601 40 92.0601C34.43 92.0601 31.57 94.3201 29.04 96.3201C26.82 98.0701 25.07 99.4601 21.3 99.4601C17.53 99.4601 15.77 98.0701 13.55 96.3201C11.03 94.3301 8.17 92.0601 2.59 92.0601C1.16 92.0601 0 93.2201 0 94.6501C0 96.0801 1.16 97.2401 2.59 97.2401C6.37 97.2401 8.12 98.6301 10.33 100.38C12.85 102.38 15.71 104.64 21.29 104.64C26.87 104.64 29.72 102.38 32.24 100.38C34.46 98.6301 36.21 97.2401 39.98 97.2401C43.75 97.2401 45.5 98.6301 47.72 100.38C50.24 102.38 53.1 104.64 58.67 104.64C64.24 104.64 67.1 102.38 69.63 100.38C71.85 98.6301 73.6 97.2401 77.37 97.2401C81.14 97.2401 82.89 98.6301 85.11 100.38C87.63 102.38 90.49 104.64 96.06 104.64C101.63 104.64 104.49 102.38 107.01 100.38C109.23 98.6301 110.98 97.2401 114.75 97.2401C118.52 97.2401 120.28 98.6301 122.49 100.38C125.01 102.38 127.87 104.64 133.45 104.64C134.88 104.64 136.04 103.48 136.04 102.05C136.04 100.62 134.88 99.4601 133.45 99.4601H133.47Z" fill="#444242"/>
<path d="M133.47 115.36C129.69 115.36 127.94 113.97 125.73 112.22C123.21 110.22 120.35 107.96 114.77 107.96C109.19 107.96 106.34 110.22 103.81 112.22C101.59 113.97 99.84 115.36 96.07 115.36C92.3 115.36 90.54 113.97 88.33 112.22C85.81 110.22 82.95 107.96 77.38 107.96C71.81 107.96 68.95 110.22 66.43 112.22C64.21 113.97 62.46 115.36 58.69 115.36C54.92 115.36 53.16 113.97 50.95 112.22C48.43 110.22 45.57 107.96 40 107.96C34.43 107.96 31.57 110.22 29.04 112.22C26.82 113.97 25.07 115.36 21.3 115.36C17.53 115.36 15.77 113.97 13.55 112.22C11.03 110.22 8.17 107.96 2.59 107.96C1.16 107.96 0 109.12 0 110.55C0 111.98 1.16 113.14 2.59 113.14C6.37 113.14 8.12 114.53 10.33 116.28C12.85 118.27 15.71 120.54 21.29 120.54C26.87 120.54 29.72 118.28 32.24 116.28C34.46 114.53 36.21 113.14 39.98 113.14C43.75 113.14 45.5 114.53 47.72 116.28C50.24 118.27 53.1 120.54 58.67 120.54C64.24 120.54 67.1 118.28 69.63 116.28C71.85 114.53 73.6 113.14 77.37 113.14C81.14 113.14 82.89 114.53 85.11 116.28C87.63 118.27 90.49 120.54 96.06 120.54C101.63 120.54 104.49 118.28 107.01 116.28C109.23 114.53 110.98 113.14 114.75 113.14C118.52 113.14 120.28 114.53 122.49 116.28C125.01 118.27 127.87 120.54 133.45 120.54C134.88 120.54 136.04 119.38 136.04 117.95C136.04 116.52 134.88 115.36 133.45 115.36H133.47Z" fill="#444242"/>
<path d="M133.47 131.26C129.69 131.26 127.94 129.87 125.73 128.12C123.21 126.12 120.35 123.86 114.77 123.86C109.19 123.86 106.34 126.12 103.81 128.12C101.59 129.87 99.84 131.26 96.07 131.26C92.3 131.26 90.54 129.87 88.33 128.12C85.81 126.12 82.95 123.86 77.38 123.86C71.81 123.86 68.95 126.12 66.43 128.12C64.21 129.87 62.46 131.26 58.69 131.26C54.92 131.26 53.16 129.87 50.95 128.12C48.43 126.12 45.57 123.86 40 123.86C34.43 123.86 31.57 126.12 29.04 128.12C26.82 129.87 25.07 131.26 21.3 131.26C17.53 131.26 15.77 129.87 13.55 128.12C11.03 126.12 8.17 123.86 2.59 123.86C1.16 123.86 0 125.02 0 126.45C0 127.88 1.16 129.04 2.59 129.04C6.37 129.04 8.12 130.42 10.33 132.18C12.85 134.18 15.71 136.44 21.29 136.44C26.87 136.44 29.72 134.18 32.24 132.18C34.46 130.43 36.21 129.04 39.98 129.04C43.75 129.04 45.5 130.42 47.72 132.18C50.24 134.18 53.1 136.44 58.67 136.44C64.24 136.44 67.1 134.18 69.63 132.18C71.85 130.43 73.6 129.04 77.37 129.04C81.14 129.04 82.89 130.42 85.11 132.18C87.63 134.18 90.49 136.44 96.06 136.44C101.63 136.44 104.49 134.18 107.01 132.18C109.23 130.43 110.98 129.04 114.75 129.04C118.52 129.04 120.28 130.42 122.49 132.18C125.01 134.18 127.87 136.44 133.45 136.44C134.88 136.44 136.04 135.28 136.04 133.85C136.04 132.42 134.88 131.26 133.45 131.26H133.47Z" fill="#444242"/>
</g>
<defs>
<clipPath id="clip0_1051_160">
<rect width="136.06" height="136.44" fill="white"/>
</clipPath>
</defs>
</svg>
