<svg width="166" height="137" viewBox="0 0 166 137" fill="none" xmlns="http://www.w3.org/2000/svg">
<g clip-path="url(#clip0_381_99)">
<path d="M165.331 78.3512L137.605 10.9967L136.003 7.10201H91.3869C90.7867 3.84196 88.3928 1.21421 85.2913 0.323027C84.5542 0.112258 83.7759 0 82.9749 0C82.9087 0 82.8425 0 82.7741 0.00229097H82.7649C82.3039 0.0137458 81.8521 0.0618562 81.4116 0.144331C81.2838 0.167241 81.1583 0.194732 81.035 0.226806C77.7487 1.00344 75.1859 3.70908 74.5628 7.10201H29.9534L28.3604 10.9967L0.985895 77.893L0 80.3008V80.3054C0.0547719 81.0362 0.134648 81.7601 0.241909 82.4749C2.45789 97.6824 15.5347 109.394 31.2885 109.394C47.0422 109.394 60.119 97.6824 62.335 82.4749C62.4423 81.7601 62.5222 81.0362 62.5769 80.3054V80.3008L61.591 77.893L34.2165 10.9967H74.718C75.5396 14.062 77.9747 16.4606 81.035 17.1869V133.105H51.9375V137H114.012V133.105H84.9147V17.1846C85.0425 17.1571 85.1681 17.1227 85.2913 17.0883C88.1714 16.2613 90.4421 13.936 91.2318 10.9967H131.717L103.991 78.3512L103.323 79.9755C103.357 80.6605 103.414 81.3409 103.494 82.0167C105.306 97.6663 118.593 109.852 134.661 109.852C150.73 109.852 164.017 97.6663 165.829 82.0167C165.909 81.3409 165.966 80.6605 166 79.9755L165.331 78.3512ZM31.2885 105.499C17.6799 105.499 6.34898 95.5243 4.16951 82.4749H58.4074C56.2279 95.5243 44.897 105.499 31.2885 105.499ZM57.6018 78.4451H4.97512L31.2885 14.1444L57.6018 78.4451ZM87.0874 10.9967C86.672 11.7847 86.0467 12.44 85.2913 12.8821C85.1681 12.9531 85.0425 13.0196 84.9147 13.0769C84.3237 13.3609 83.6664 13.5167 82.9749 13.5167C82.4272 13.5167 81.9 13.4182 81.4116 13.2395C81.2838 13.1937 81.1583 13.141 81.035 13.0814C80.1085 12.6484 79.3463 11.9108 78.8624 10.9967C78.5019 10.3162 78.2965 9.53502 78.2965 8.70569C78.2965 8.1444 78.39 7.60373 78.5658 7.10201C78.988 5.87176 79.8871 4.86831 81.035 4.32993C81.1583 4.27037 81.2838 4.21768 81.4116 4.17186C81.9 3.99316 82.4272 3.89465 82.9749 3.89465C83.6664 3.89465 84.3237 4.05043 84.9147 4.33452C85.0425 4.39179 85.1681 4.45823 85.2913 4.52925C86.2589 5.09512 87.0098 6.00921 87.384 7.10201C87.5598 7.60373 87.6533 8.1444 87.6533 8.70569C87.6533 9.53502 87.4479 10.3162 87.0874 10.9967ZM134.661 14.0826L160.975 78.0098H108.348L134.661 14.0826ZM134.661 105.957C120.738 105.957 109.195 95.5128 107.403 82.0167H161.919C160.128 95.5128 148.587 105.957 134.661 105.957Z" fill="white" stroke="white"/>
</g>
<defs>
<clipPath id="clip0_381_99">
<rect width="166" height="137" fill="white"/>
</clipPath>
</defs>
</svg>
