<svg width="167" height="127" viewBox="0 0 167 127" fill="none" xmlns="http://www.w3.org/2000/svg">
<g clip-path="url(#clip0_317_104)">
<path d="M94.9676 127H2.93364C1.8834 127 0.915297 126.444 0.393111 125.544C-0.134943 124.637 -0.134943 123.526 0.393111 122.619L50.1299 36.2072C50.6697 35.2654 51.7082 34.6396 52.7702 34.739C53.8615 34.7799 54.8355 35.4058 55.3107 36.3768L97.602 122.783C98.0479 123.689 97.9892 124.766 97.4553 125.614C96.9214 126.468 95.9826 126.988 94.9676 126.988V127ZM8.00295 121.151H90.2679L52.4651 43.9048L7.99709 121.151H8.00295Z" fill="#444242"/>
<path d="M72.9301 107.697C72.1497 107.697 71.4046 107.387 70.8531 106.843L48.798 84.8558L37.615 96.0045C36.4709 97.1451 34.6109 97.1451 33.4668 96.0045L23.7741 86.3415C22.63 85.2009 22.63 83.3466 23.7741 82.206C24.9182 81.0654 26.7781 81.0654 27.9223 82.206L35.5438 89.8043L46.7269 78.6555C47.871 77.5149 49.7309 77.5149 50.875 78.6555L72.9301 100.643L79.3958 94.1912C80.5399 93.0506 82.3998 93.0506 83.5439 94.1912C84.6881 95.3319 84.6881 97.1861 83.5439 98.3267L75.0071 106.843C74.4555 107.393 73.7104 107.697 72.9301 107.697Z" fill="#444242"/>
<path d="M164.066 127H94.9676C93.3482 127 92.034 125.69 92.034 124.075C92.034 122.461 93.3482 121.151 94.9676 121.151H159.326L103.141 9.13661L71.3049 64.9448C70.5011 66.3428 68.7057 66.84 67.3034 66.0444C65.8953 65.2431 65.4024 63.4649 66.2062 62.0552L100.759 1.47987C101.298 0.543985 102.255 0.111137 103.387 0C104.473 0.0292465 105.447 0.649272 105.934 1.61441L166.689 122.765C167.141 123.672 167.094 124.748 166.566 125.608C166.026 126.468 165.081 126.994 164.066 126.994V127Z" fill="#444242"/>
<path d="M118.202 83.645C118.149 83.645 118.096 83.645 118.049 83.645C117.169 83.5982 116.348 83.1595 115.826 82.44L96.6514 56.0714L85.6503 67.0388C84.5531 68.1385 82.5993 68.1385 81.5021 67.0388L71.5219 57.0892C70.3778 55.9486 70.3778 54.0943 71.5219 52.9537C72.666 51.8131 74.5259 51.8131 75.6701 52.9537L83.5791 60.8386L94.9382 49.5085C95.5425 48.9001 96.358 48.6135 97.244 48.6603C98.1006 48.7247 98.8868 49.1634 99.3914 49.8594L118.448 76.0701L131.515 61.5463C132.606 60.3414 134.454 60.2478 135.657 61.3241C136.86 62.4062 136.965 64.2487 135.88 65.4537L120.39 82.674C119.833 83.2882 119.041 83.645 118.208 83.645H118.202Z" fill="#444242"/>
</g>
<defs>
<clipPath id="clip0_317_104">
<rect width="167" height="127" fill="white"/>
</clipPath>
</defs>
</svg>
