<svg width="69" height="69" viewBox="0 0 69 69" fill="none" xmlns="http://www.w3.org/2000/svg">
<g clip-path="url(#clip0_363_205)">
<path d="M58.8945 10.1055C55.7262 6.93715 52.0368 4.44875 47.9292 2.71271C43.6744 0.911246 39.1555 0 34.4988 0C29.8421 0 25.3233 0.911246 21.0685 2.71037C16.9609 4.44875 13.2715 6.93481 10.1031 10.1031C6.93481 13.2715 4.44641 16.9609 2.71037 21.0685C0.911246 25.3233 0 29.8421 0 34.4988C0 39.1555 0.911246 43.6744 2.71037 47.9292C4.44875 52.0368 6.93481 55.7262 10.1031 58.8945C13.2715 62.0628 16.9609 64.5513 21.0685 66.2873C24.87 67.8948 28.8818 68.7944 33.0151 68.9673C33.1016 68.9883 33.1904 69 33.2815 69C33.3422 69 33.4053 68.9953 33.4661 68.9836C33.8096 68.993 34.153 69 34.4988 69C39.1555 69 43.6744 68.0888 47.9292 66.2896C52.0368 64.5512 55.7262 62.0652 58.8945 58.8969C62.0628 55.7285 64.5489 52.0391 66.2873 47.9315C67.1284 45.9408 67.7757 43.894 68.2266 41.8005C68.2687 41.6883 68.292 41.5762 68.2967 41.4617C68.7617 39.1882 68.9977 36.8634 68.9977 34.5012C68.9977 29.8445 68.0841 25.3256 66.2873 21.0731C64.5489 16.9632 62.0628 13.2738 58.8945 10.1078V10.1055ZM3.38563 42.658C14.0168 47.6909 23.8793 56.2052 30.9683 66.4672C17.6291 65.0045 6.71752 55.35 3.38563 42.658ZM34.4988 66.6611C34.3026 66.6611 34.1063 66.6565 33.91 66.6541C26.1925 54.864 14.9047 45.13 2.77579 39.8121C2.6543 39.0901 2.5585 38.3588 2.48607 37.6228H3.57255C19.7974 37.6228 37.3097 47.2796 49.5694 62.904C45.0716 65.3013 39.9406 66.6611 34.4988 66.6611ZM51.6092 61.7194C45.7282 54.1654 38.4429 47.7423 30.4777 43.1089C26.4472 40.7631 22.3092 38.9266 18.1642 37.6228H24.8022C37.0013 37.6228 49.8311 42.9547 61.0278 52.6583C58.5417 56.2823 55.3313 59.3712 51.6069 61.7194H51.6092ZM17.2155 29.6529C13.7224 29.6529 10.8789 26.8117 10.8789 23.3162C10.8789 19.8208 13.7224 16.9795 17.2155 16.9795C20.7086 16.9795 23.5522 19.8208 23.5522 23.3162C23.5522 26.8117 20.711 29.6529 17.2155 29.6529ZM62.2965 50.6606C56.9482 46.0693 51.1933 42.4127 45.1721 39.7817C43.2585 38.9452 41.3425 38.2256 39.4312 37.6204H46.0343C52.5041 37.6204 59.1375 39.1135 65.7616 42.0552C65.0209 45.116 63.8433 48.0086 62.2942 50.6606H62.2965ZM66.2382 39.7093C59.4693 36.7723 52.6794 35.2839 46.0343 35.2839H42.2117V30.2814C47.6558 29.6949 51.9083 25.0756 51.9083 19.4796C51.9083 13.4888 47.0343 8.61478 41.0434 8.61478C35.0526 8.61478 30.1786 13.4888 30.1786 19.4796C30.1786 25.0756 34.4311 29.6973 39.8752 30.2814V35.2839H18.3838V31.91C22.6152 31.3375 25.8887 27.7019 25.8887 23.3162C25.8887 18.5333 21.9984 14.643 17.2155 14.643C12.4327 14.643 8.54235 18.5333 8.54235 23.3162C8.54235 27.7019 11.8158 31.3375 16.0473 31.91V35.2839H2.34587C2.33886 35.0222 2.33653 34.7605 2.33653 34.4965C2.33653 16.7646 16.7646 2.33653 34.4988 2.33653C52.2331 2.33653 66.6611 16.7646 66.6611 34.4988C66.6611 36.2723 66.5139 38.0153 66.2359 39.7116L66.2382 39.7093ZM41.0434 28.0056C36.3424 28.0056 32.5151 24.1807 32.5151 19.4773C32.5151 14.7739 36.3424 10.949 41.0434 10.949C45.7445 10.949 49.5718 14.7762 49.5718 19.4773C49.5718 24.1784 45.7469 28.0056 41.0434 28.0056Z" fill="#494949"/>
<path d="M17.2156 19.3184C16.5707 19.3184 16.0474 19.8417 16.0474 20.4866C16.0474 21.1315 16.5707 21.6549 17.2156 21.6549C18.1315 21.6549 18.8792 22.4002 18.8792 23.3185C18.8792 23.9634 19.4026 24.4868 20.0475 24.4868C20.6924 24.4868 21.2158 23.9634 21.2158 23.3185C21.2158 21.1128 19.4236 19.3184 17.2156 19.3184Z" fill="#494949"/>
<path d="M41.0433 13.2902C40.3984 13.2902 39.875 13.8136 39.875 14.4584C39.875 15.1033 40.3984 15.6267 41.0433 15.6267C43.1695 15.6267 44.8985 17.3557 44.8985 19.4796C44.8985 20.1245 45.4219 20.6479 46.0668 20.6479C46.7117 20.6479 47.2351 20.1245 47.2351 19.4796C47.2351 16.066 44.4569 13.2878 41.0433 13.2878V13.2902Z" fill="#494949"/>
</g>
<defs>
<clipPath id="clip0_363_205">
<rect width="69" height="69" fill="white"/>
</clipPath>
</defs>
</svg>
