<svg width="69" height="71" viewBox="0 0 69 71" fill="none" xmlns="http://www.w3.org/2000/svg">
<g clip-path="url(#clip0_482_252)">
<path d="M40 60H44V65H41.5021L40 61.6828V60Z" stroke="#4C4C4C" stroke-width="3" stroke-miterlimit="10"/>
<path d="M1 35.6862V29.9778L11.6446 24.5617V20.9737L18.4815 15.5895H20.4089L22.2906 17.3842H24.0649L25.8392 12H33.8223V13.7947L32.9351 17.3842L38.2581 20.9737L40.0324 19.1789L41.8068 12H45.3554V17.3842L47.1283 24.5617L52.4513 31.7407L56 37.1249V40.7129L47.7579 53.6842H44.4998L41.8068 56H38.2581L34.7094 47.8918L32.9351 46.0971H31.1608L27.6136 42.5076H24.0649L16.9676 46.0971L9.87166 49.6866H6.323V44.3024L2.77433 37.1249L1 35.6862Z" stroke="#4C4C4C" stroke-width="3" stroke-miterlimit="10"/>
<path d="M59.1279 61.3576L52.6875 67.7859L55.9077 71L62.3481 64.5718L59.1279 61.3576Z" stroke="#4C4C4C" stroke-width="3" stroke-miterlimit="10"/>
<path d="M65.5688 54.9311L62.3486 58.1453L65.5688 61.3594L68.789 58.1453L65.5688 54.9311Z" stroke="#4C4C4C" stroke-width="3" stroke-miterlimit="10"/>
<path d="M66 55L62 52" stroke="#4C4C4C" stroke-width="3" stroke-miterlimit="10"/>
<path d="M48 7H41.2012H32.0946L25 4.6V1H29.9669H42.5801L48 2.2V7Z" stroke="#4C4C4C" stroke-width="3" stroke-miterlimit="10"/>
<path d="M55 7H57" stroke="#4C4C4C" stroke-width="3" stroke-miterlimit="10"/>
<path d="M55 11H57" stroke="#4C4C4C" stroke-width="3" stroke-miterlimit="10"/>
<path d="M61 18H64" stroke="#4C4C4C" stroke-width="3" stroke-miterlimit="10"/>
<path d="M61 23H64" stroke="#4C4C4C" stroke-width="3" stroke-miterlimit="10"/>
<path d="M61 27H64" stroke="#4C4C4C" stroke-width="3" stroke-miterlimit="10"/>
<path d="M68 23H71" stroke="#4C4C4C" stroke-width="3" stroke-miterlimit="10"/>
<path d="M68 27H71" stroke="#4C4C4C" stroke-width="3" stroke-miterlimit="10"/>
<path d="M61 34H64" stroke="#4C4C4C" stroke-width="3" stroke-miterlimit="10"/>
</g>
<defs>
<clipPath id="clip0_482_252">
<rect width="69" height="71" fill="white"/>
</clipPath>
</defs>
</svg>
