<svg width="89" height="78" viewBox="0 0 89 78" fill="none" xmlns="http://www.w3.org/2000/svg">
<g clip-path="url(#clip0_361_105)" filter="url(#filter0_d_361_105)">
<path d="M4.4292 67.4369C4.00628 67.8745 3.88627 68.5224 4.12059 69.0793C4.36062 69.6363 4.90927 70 5.52078 70H83.4746C84.0862 70 84.6348 69.6363 84.8748 69.0793C85.1149 68.5224 84.9949 67.8745 84.5662 67.4369C74.9192 57.514 62.2602 51.6489 48.5726 50.6714L58.8597 28.7286L68.1696 33.0478C68.1982 33.0592 68.2268 33.0819 68.2611 33.0933C68.2725 33.0933 68.2782 33.0933 68.2897 33.099L80.4514 38.7367C80.6571 38.8333 80.8743 38.8788 81.0972 38.8788C81.2743 38.8788 81.4515 38.8504 81.6172 38.7879C81.9944 38.6515 82.3031 38.3673 82.4745 38.0036C88.7325 24.6537 82.9031 8.7294 69.4841 2.50629C65.895 0.841114 62.0831 0 58.1511 0C47.7439 0 38.1825 6.05829 33.7876 15.4299C33.6162 15.7936 33.599 16.2085 33.7362 16.5893C33.8734 16.9644 34.1591 17.2713 34.5249 17.4417L46.6866 23.0795C46.6866 23.0795 46.7037 23.0908 46.7095 23.0965C46.7723 23.1306 46.8409 23.159 46.9095 23.1875L56.1108 27.4556L45.2864 50.5407C45.0235 50.5407 44.7663 50.5294 44.5034 50.5294C43.669 50.5294 42.8346 50.5521 42.0059 50.5862L41.5659 46.409C41.8288 46.1419 42.0631 45.8407 42.2574 45.5111L49.4184 33.1729C50.0299 32.1215 50.19 30.8996 49.8756 29.7231C49.5613 28.5524 48.8012 27.5692 47.7439 26.9668C47.0524 26.569 46.258 26.3587 45.4636 26.3587C43.8348 26.3587 42.3203 27.2282 41.503 28.632L35.285 39.3391L7.38962 46.7728C4.95499 47.4206 3.50907 49.9156 4.16059 52.3366C4.69781 54.32 6.50949 55.7067 8.57264 55.7067C8.9727 55.7067 9.37276 55.6556 9.75567 55.5533L17.4539 53.5017V57.4685C12.7104 60.0999 8.32689 63.4416 4.43492 67.4426L4.4292 67.4369ZM80.3199 35.3325L70.7643 30.8996C73.6847 23.1079 74.862 15.339 74.119 9.16132C81.2915 15.6288 83.9776 26.0347 80.3199 35.3325ZM46.7952 19.7832L37.2395 15.356C41.3887 7.82009 49.4356 3.02915 58.1511 3.02915C59.2427 3.02915 60.3228 3.10303 61.3973 3.25079C56.1565 6.65503 50.9215 12.5485 46.7952 19.7889V19.7832ZM49.5613 21.0676C54.1848 13.0316 60.1514 6.83689 65.7693 4.27945C66.5923 4.55793 67.3981 4.88187 68.1982 5.25128C69.004 5.62637 69.7699 6.04124 70.5128 6.48453C72.1473 12.4121 71.2158 20.9312 67.9925 29.6152L49.5556 21.0676H49.5613ZM8.96698 52.6151C8.83554 52.6492 8.70409 52.6662 8.57264 52.6662C7.88683 52.6662 7.28103 52.2059 7.10386 51.541C6.88669 50.7339 7.37247 49.8985 8.18402 49.6826L36.6852 42.0898C37.0738 41.9875 37.4053 41.7318 37.611 41.3851L44.1434 30.1323C44.4177 29.6663 44.9206 29.3708 45.4636 29.3708C45.7322 29.3708 45.9894 29.439 46.2237 29.5754C46.578 29.78 46.8295 30.1039 46.9324 30.4961C47.0352 30.8882 46.9838 31.2974 46.778 31.6441L39.617 43.9823C39.417 44.329 39.0798 44.5847 38.6912 44.687L8.96698 52.6094V52.6151ZM38.9655 50.7908C32.4903 51.4216 26.2609 53.1493 20.5 55.8886V52.6719L38.6569 47.8355L38.9655 50.7908ZM40.7258 53.6835C40.7258 53.6835 40.7715 53.6835 40.8001 53.6835C40.8001 53.6835 40.8115 53.6835 40.8172 53.6835C42.0402 53.5983 43.269 53.5585 44.5034 53.5585C57.6653 53.5585 70.0327 58.2983 79.7141 66.9765H9.28703C18.0368 59.1337 28.9812 54.5076 40.72 53.6892L40.7258 53.6835Z" fill="white"/>
<path d="M65.9117 63.7372C66.4947 64.0327 67.0833 64.3396 67.6491 64.6578C67.8834 64.7885 68.1406 64.8511 68.3921 64.8511C68.9236 64.8511 69.4437 64.5726 69.7237 64.0781C70.1352 63.3507 69.8723 62.4243 69.1408 62.0151C68.535 61.6742 67.912 61.3445 67.2891 61.032C66.5404 60.6569 65.626 60.9524 65.2431 61.6969C64.8659 62.4414 65.1631 63.3564 65.9117 63.7315V63.7372Z" fill="white"/>
<path d="M46.6746 58.7473C51.9096 58.9803 57.0018 60.0431 61.8139 61.9129C61.9968 61.9811 62.1854 62.0152 62.3683 62.0152C62.9798 62.0152 63.5513 61.6514 63.7856 61.049C64.0942 60.2704 63.7056 59.3895 62.9226 59.0883C57.7962 57.0992 52.3783 55.9625 46.8118 55.7182C45.9774 55.6784 45.263 56.3263 45.223 57.1617C45.1887 57.9971 45.8345 58.7075 46.6746 58.7416V58.7473Z" fill="white"/>
<path d="M36.9359 59.2701C37.0102 59.2701 37.0902 59.2644 37.1703 59.2531C38.8676 58.9916 40.5993 58.8268 42.3253 58.7472C43.1654 58.7075 43.8169 58.0027 43.7769 57.1673C43.7369 56.3319 43.0168 55.684 42.1881 55.7238C40.3536 55.8033 38.5076 55.9852 36.7073 56.258C35.8786 56.383 35.3071 57.1559 35.4329 57.9857C35.5472 58.7359 36.1987 59.2701 36.9359 59.2701Z" fill="white"/>
<path d="M29.9638 59.3213C30.1467 59.9919 30.764 60.4352 31.4326 60.4352C31.5641 60.4352 31.7012 60.4182 31.8384 60.3784C32.2442 60.2704 32.6499 60.1624 33.0557 60.0658C33.873 59.8669 34.3702 59.0485 34.1702 58.2358C33.9701 57.4231 33.1472 56.9287 32.3299 57.1276C31.8955 57.2356 31.4612 57.3436 31.0326 57.4629C30.221 57.6845 29.7467 58.52 29.9696 59.3213H29.9638Z" fill="white"/>
</g>
<defs>
<filter id="filter0_d_361_105" x="0" y="0" width="89" height="78" filterUnits="userSpaceOnUse" color-interpolation-filters="sRGB">
<feFlood flood-opacity="0" result="BackgroundImageFix"/>
<feColorMatrix in="SourceAlpha" type="matrix" values="0 0 0 0 0 0 0 0 0 0 0 0 0 0 0 0 0 0 127 0" result="hardAlpha"/>
<feOffset dy="4"/>
<feGaussianBlur stdDeviation="2"/>
<feComposite in2="hardAlpha" operator="out"/>
<feColorMatrix type="matrix" values="0 0 0 0 0 0 0 0 0 0 0 0 0 0 0 0 0 0 0.25 0"/>
<feBlend mode="normal" in2="BackgroundImageFix" result="effect1_dropShadow_361_105"/>
<feBlend mode="normal" in="SourceGraphic" in2="effect1_dropShadow_361_105" result="shape"/>
</filter>
<clipPath id="clip0_361_105">
<rect width="81" height="70" fill="white" transform="translate(4)"/>
</clipPath>
</defs>
</svg>
