<svg width="81" height="70" viewBox="0 0 81 70" fill="none" xmlns="http://www.w3.org/2000/svg">
<g clip-path="url(#clip0_361_105)">
<path d="M0.429201 67.4369C0.00628376 67.8745 -0.113733 68.5224 0.120586 69.0793C0.36062 69.6363 0.909268 70 1.52078 70H79.4746C80.0862 70 80.6348 69.6363 80.8748 69.0793C81.1149 68.5224 80.9949 67.8745 80.5662 67.4369C70.9192 57.514 58.2602 51.6489 44.5726 50.6714L54.8597 28.7286L64.1696 33.0478C64.1982 33.0592 64.2268 33.0819 64.2611 33.0933C64.2725 33.0933 64.2782 33.0933 64.2896 33.099L76.4514 38.7367C76.6571 38.8333 76.8743 38.8788 77.0972 38.8788C77.2743 38.8788 77.4515 38.8504 77.6172 38.7879C77.9944 38.6515 78.3031 38.3673 78.4745 38.0036C84.7325 24.6537 78.9031 8.7294 65.4841 2.50629C61.895 0.841114 58.0831 0 54.1511 0C43.7439 0 34.1825 6.05829 29.7876 15.4299C29.6162 15.7936 29.599 16.2085 29.7362 16.5893C29.8734 16.9644 30.1591 17.2713 30.5249 17.4417L42.6866 23.0795C42.6866 23.0795 42.7037 23.0909 42.7095 23.0965C42.7723 23.1306 42.8409 23.159 42.9095 23.1875L52.1108 27.4556L41.2864 50.5407C41.0235 50.5407 40.7663 50.5294 40.5034 50.5294C39.669 50.5294 38.8346 50.5521 38.0059 50.5862L37.5659 46.409C37.8288 46.1419 38.0631 45.8407 38.2574 45.5111L45.4184 33.1729C46.0299 32.1215 46.1899 30.8996 45.8756 29.7231C45.5613 28.5524 44.8012 27.5692 43.7439 26.9668C43.0524 26.569 42.258 26.3587 41.4636 26.3587C39.8348 26.3587 38.3203 27.2282 37.503 28.632L31.285 39.3391L3.38962 46.7728C0.954989 47.4206 -0.490929 49.9156 0.160591 52.3366C0.69781 54.32 2.50949 55.7067 4.57264 55.7067C4.9727 55.7067 5.37276 55.6556 5.75567 55.5533L13.4539 53.5017V57.4685C8.71037 60.0999 4.32689 63.4416 0.434916 67.4426L0.429201 67.4369ZM76.3199 35.3325L66.7643 30.8996C69.6847 23.1079 70.862 15.339 70.119 9.16132C77.2915 15.6288 79.9776 26.0347 76.3199 35.3325ZM42.7952 19.7832L33.2395 15.356C37.3887 7.82009 45.4356 3.02915 54.1511 3.02915C55.2427 3.02915 56.3228 3.10303 57.3973 3.25079C52.1565 6.65503 46.9215 12.5485 42.7952 19.7889V19.7832ZM45.5613 21.0676C50.1848 13.0316 56.1514 6.83689 61.7693 4.27945C62.5923 4.55793 63.3981 4.88187 64.1982 5.25128C65.004 5.62637 65.7699 6.04124 66.5128 6.48453C68.1473 12.4121 67.2158 20.9312 63.9925 29.6152L45.5556 21.0676H45.5613ZM4.96698 52.6151C4.83554 52.6492 4.70409 52.6662 4.57264 52.6662C3.88683 52.6662 3.28103 52.2059 3.10386 51.541C2.88669 50.7339 3.37247 49.8985 4.18402 49.6826L32.6852 42.0898C33.0738 41.9875 33.4053 41.7318 33.611 41.3851L40.1434 30.1323C40.4177 29.6663 40.9206 29.3708 41.4636 29.3708C41.7322 29.3708 41.9894 29.439 42.2237 29.5754C42.578 29.78 42.8295 30.1039 42.9324 30.4961C43.0352 30.8882 42.9838 31.2974 42.778 31.6441L35.617 43.9823C35.417 44.329 35.0798 44.5847 34.6912 44.687L4.96698 52.6094V52.6151ZM34.9655 50.7908C28.4903 51.4216 22.2609 53.1493 16.5 55.8886V52.6719L34.6569 47.8355L34.9655 50.7908ZM36.7258 53.6835C36.7258 53.6835 36.7715 53.6835 36.8001 53.6835C36.8001 53.6835 36.8115 53.6835 36.8172 53.6835C38.0402 53.5983 39.269 53.5585 40.5034 53.5585C53.6653 53.5585 66.0327 58.2983 75.7141 66.9765H5.28703C14.0368 59.1337 24.9812 54.5076 36.72 53.6892L36.7258 53.6835Z" fill="#494949"/>
<path d="M61.9117 63.7372C62.4947 64.0327 63.0833 64.3396 63.6491 64.6578C63.8834 64.7885 64.1406 64.8511 64.3921 64.8511C64.9236 64.8511 65.4437 64.5726 65.7237 64.0781C66.1352 63.3507 65.8723 62.4243 65.1408 62.0151C64.535 61.6742 63.912 61.3445 63.2891 61.032C62.5404 60.6569 61.626 60.9524 61.2431 61.6969C60.8659 62.4414 61.1631 63.3564 61.9117 63.7315V63.7372Z" fill="#494949"/>
<path d="M42.6746 58.7473C47.9096 58.9803 53.0018 60.0431 57.8139 61.9129C57.9968 61.9811 58.1854 62.0152 58.3683 62.0152C58.9798 62.0152 59.5513 61.6514 59.7856 61.049C60.0942 60.2704 59.7056 59.3895 58.9226 59.0883C53.7962 57.0992 48.3783 55.9625 42.8118 55.7182C41.9774 55.6784 41.263 56.3263 41.223 57.1617C41.1887 57.9971 41.8345 58.7075 42.6746 58.7416V58.7473Z" fill="#494949"/>
<path d="M32.9359 59.2701C33.0102 59.2701 33.0902 59.2644 33.1703 59.2531C34.8676 58.9916 36.5993 58.8268 38.3253 58.7472C39.1654 58.7075 39.8169 58.0027 39.7769 57.1673C39.7369 56.3319 39.0168 55.684 38.1881 55.7238C36.3536 55.8033 34.5076 55.9852 32.7073 56.258C31.8786 56.383 31.3071 57.1559 31.4329 57.9857C31.5472 58.7359 32.1987 59.2701 32.9359 59.2701Z" fill="#494949"/>
<path d="M25.9638 59.3213C26.1467 59.9919 26.764 60.4352 27.4326 60.4352C27.5641 60.4352 27.7012 60.4182 27.8384 60.3784C28.2442 60.2704 28.6499 60.1624 29.0557 60.0658C29.873 59.8669 30.3702 59.0485 30.1702 58.2358C29.9701 57.4231 29.1472 56.9287 28.3299 57.1276C27.8955 57.2356 27.4612 57.3436 27.0326 57.4629C26.221 57.6845 25.7467 58.52 25.9696 59.3213H25.9638Z" fill="#494949"/>
</g>
<defs>
<clipPath id="clip0_361_105">
<rect width="81" height="70" fill="white"/>
</clipPath>
</defs>
</svg>
