<svg width="46" height="91" viewBox="0 0 46 91" fill="none" xmlns="http://www.w3.org/2000/svg">
<g clip-path="url(#clip0_385_357)">
<path d="M45.9467 39.7232C45.9282 32.8094 40.7331 30.9949 36.1475 29.3939C34.1408 28.6933 32.0716 27.9698 30.4357 26.8466V25.7509C33.5361 23.4839 35.5497 19.8363 35.5497 15.734V12.4425C35.5497 5.58155 29.919 0 22.9977 0C16.0764 0 10.4457 5.58155 10.4457 12.4425V15.734C10.4457 19.834 12.457 23.477 15.5527 25.7464V26.8489C13.9168 27.9721 11.8476 28.6956 9.84092 29.3962C5.25992 30.9949 0.062563 32.8094 0.0463429 39.7232L0 59.3413C0 59.4171 0.00463429 59.4929 0.01622 59.5664C0.456478 62.7316 3.09803 64.9505 6.16129 64.7254C6.84717 64.6748 7.49134 64.5094 8.08221 64.2453L7.47975 85.3036C7.47975 85.3289 7.47975 85.3518 7.47975 85.3771C7.53073 88.478 10.0889 91 13.1799 91H14.6606C17.6474 91 20.0943 88.6273 20.3538 85.4828L21.5147 71.4163H24.4853L25.6462 85.4667C25.8779 88.6204 28.3271 90.9977 31.3417 90.9977H32.8224C35.9088 90.9977 38.467 88.4757 38.5226 85.3771C38.5226 85.3518 38.5226 85.3266 38.5226 85.3013L37.9201 64.2407C38.511 64.5071 39.1598 64.6725 39.8457 64.7231C42.9066 64.9482 45.5505 62.7293 45.9907 59.5641C46.0023 59.4883 46.007 59.4125 46.007 59.3367L45.9537 39.7186L45.9467 39.7232ZM13.7337 15.7317V12.4402C13.7337 7.37546 17.8907 3.25476 23 3.25476C28.1093 3.25476 32.2663 7.37546 32.2663 12.4402V15.7317C32.2663 20.7965 28.1093 24.9172 23 24.9172C17.8907 24.9172 13.7337 20.7965 13.7337 15.7317ZM40.082 61.4798C38.7612 61.3833 37.7857 60.2188 37.8112 58.774C37.8135 58.6017 37.7904 58.434 37.7417 58.2779L37.3501 44.5674C37.3246 43.6693 36.5738 42.9642 35.6609 42.9872C34.7549 43.0124 34.0412 43.7612 34.0667 44.6616L35.2322 85.3564C35.1905 86.6772 34.1154 87.7475 32.8178 87.7475H31.3371C30.0627 87.7475 29.0223 86.668 28.9157 85.2209L27.6297 69.6615C27.5601 68.8162 26.8488 68.1662 25.9938 68.1662H19.997C19.142 68.1662 18.4306 68.8162 18.3611 69.6615L17.0751 85.2209C16.9708 86.4773 16.1065 87.7475 14.6536 87.7475H13.173C11.8731 87.7475 10.7979 86.6795 10.7585 85.3587L11.924 44.6639C11.9495 43.7658 11.2358 43.017 10.3298 42.9895C9.42384 42.9642 8.66845 43.6716 8.64296 44.5697L8.24904 58.3008C8.20502 58.4524 8.18416 58.6109 8.18648 58.7763C8.21197 60.2211 7.23645 61.3856 5.91568 61.4821C4.63661 61.5786 3.51975 60.6115 3.2834 59.2265L3.32974 39.7347C3.34133 35.3338 6.08483 34.16 10.9346 32.4672C13.4649 31.5829 16.081 30.6687 18.2383 28.9207C18.6206 28.6106 18.8407 28.1489 18.8407 27.662V27.4759C20.143 27.9307 21.5425 28.1788 23 28.1788C24.4575 28.1788 25.8524 27.933 27.1523 27.4782V27.6597C27.1523 28.1489 27.3725 28.6106 27.7548 28.9184C29.9121 30.6664 32.5258 31.5806 35.0561 32.4649C39.9059 34.16 42.6494 35.3315 42.661 39.7324L42.7143 59.2242C42.4756 60.6092 41.3588 61.574 40.082 61.4798Z" fill="#494949"/>
</g>
<defs>
<clipPath id="clip0_385_357">
<rect width="46" height="91" fill="white"/>
</clipPath>
</defs>
</svg>
