<svg width="68" height="68" viewBox="0 0 68 68" fill="none" xmlns="http://www.w3.org/2000/svg">
<g clip-path="url(#clip0_363_202)">
<path d="M41.1778 0.758839C23.5577 -2.99679 6.32312 7.51125 1.4008 24.3601C-1.96643 35.7685 0.758199 48.6045 9.69035 57.6849C23.0307 71.3055 45.0591 71.5627 58.4123 57.6849C64.3757 51.4598 67.9999 43.164 67.9999 33.955C67.9999 17.8778 56.6002 4.12861 41.1778 0.758839ZM60.7385 34.3408L64.2343 28.2444C65.0054 32.2572 64.8769 36.4116 64.1058 40.1801C63.8487 39.9228 60.8671 34.7395 60.7385 34.3408ZM56.4588 55.0868H47.2568L41.8204 45.7492L47.2568 36.4116H58.0139L62.8077 44.7074C61.3811 48.463 59.1835 52.1029 56.4588 55.0868ZM23.2878 34.3408C27.696 26.5595 28.4671 25.3891 28.5957 25.0032H39.4813L44.6607 34.0836L39.2243 43.4212H28.4671L23.2878 34.3408ZM58.1424 32.3987H47.5138L42.3345 23.1897C43.504 21.119 46.8712 15.4084 47.9122 13.7235H57.1143C59.7104 16.7074 61.7796 20.2058 63.0776 23.9614L58.1553 32.3859L58.1424 32.3987ZM47.2568 10.4823L44.1466 5.17041C47.6423 6.34083 50.7525 8.15434 53.6057 10.4823H47.2568ZM39.7384 3.87138C40.2524 4.78456 44.0181 11.3955 44.5322 12.1672C44.2751 12.5531 45.1748 10.9968 39.2243 21.5048H28.2101L22.9022 12.4244L27.8245 3.87138C31.8472 3.09967 35.857 3.09967 39.7512 3.87138H39.7384ZM23.5448 5.0418L20.0491 11.1383H13.4431C16.2963 8.54019 19.792 6.46945 23.5448 5.0418ZM10.2044 14.3794H20.1776L25.4855 23.4598C23.9304 26.0579 21.0772 31.2412 19.9077 33.0547H9.43331L4.63951 24.6302C5.80904 21.0032 7.74969 17.5048 10.2173 14.3923L10.2044 14.3794ZM3.46997 29.2862C4.76803 31.4855 5.53915 32.7846 6.58016 34.7267L3.59849 39.7814C3.08441 36.4116 2.95589 32.7846 3.46997 29.2733V29.2862ZM9.43331 36.4116H20.1904C20.833 37.4534 24.8557 44.4502 25.3698 45.492L19.9334 55.0868H11.2454C8.39229 51.9743 6.06608 48.3473 4.76803 44.3215L9.43331 36.4116ZM20.576 58.328L23.1721 62.9968C20.1904 61.8264 17.3373 60.2701 14.8826 58.328H20.5889H20.576ZM27.7089 64.2958L23.3006 56.3858C25.1128 53.2733 26.9249 50.0322 28.737 46.791H38.8387L44.1466 56.1286L39.4813 64.2958C35.6 65.0675 31.4488 65.0675 27.696 64.2958H27.7089ZM43.7739 63.254L46.627 58.328H52.9759C50.2513 60.3987 47.1411 62.0836 43.7739 63.254Z" fill="white"/>
</g>
<defs>
<clipPath id="clip0_363_202">
<rect width="68" height="68" fill="white"/>
</clipPath>
</defs>
</svg>
